<svg id="Layer_1" data-name="Layer 1" xmlns="http://www.w3.org/2000/svg" viewBox="0 0 679.27 682.21"><path d="M770.27,336.67c-1.59,1.43-3.21,2.82-4.75,4.3s-3,3-4.46,4.57a37.32,37.32,0,0,1-9.42,7c-1.26.72-2.7,1.16-3.95,1.9-2,1.2-3.94,2.57-5.91,3.84-1,.65-2.08,1.23-3.36,2,.19-2.09.39-4,.55-5.89.19-2.43.49-4.87.48-7.31,0-3.76-.23-7.53-.35-11.3,0-.46-.13-1,.09-1.36,1.32-2,.5-4.25.43-6.27a16,16,0,0,1,.88-6.53c1.08-2.69,2.45-5.26,3.58-7.94.64-1.53.68-3.45,1.66-4.66,1.68-2.11,1.6-4.71,2.53-7,1-2.51,1.06-5.39,1.59-8.1.22-1.16.71-2.28.87-3.44.63-4.44.82-8.94,2-13.3,0-.15.07-.31.1-.47.95-5.21,1.36-10.56,3.69-15.45a1.24,1.24,0,0,0,.14-.45c.07-.82.08-1.64-.89-2s-1.32.33-1.67,1c-1.32,2.43-2.59,4.88-3.92,7.31-1.53,2.77-2.94,5.63-4.69,8.26a105.06,105.06,0,0,0-6.73,10.58c-.53,1-1,2.08-1.6,3.1-1.5,2.77-3.36,5.39-3.26,8.77a4.43,4.43,0,0,1-.53,1.47c-1.82-5.86-5.32-11-6.32-17a26.63,26.63,0,0,0,3-2.2,25.16,25.16,0,0,0,2.38-2.95,28.06,28.06,0,0,0,5.33-12.62,4,4,0,0,0-1.23-3.88c-1.26-1-2.7-.22-3.82.39-3.34,1.82-5,5.11-6.68,8.3a40.51,40.51,0,0,0-1.79,4.75l-1.65-4.69a4.63,4.63,0,0,1,.53-.8c2.27-2.31,3-5.49,3.68-8.35a13.37,13.37,0,0,0-1-9.07c-1-1.91-1.51-2.14-3.2-.81a2.8,2.8,0,0,0-.88,1.06c-.64,1.53-1.16,3.09-1.78,4.63a22.74,22.74,0,0,1-1,2c-.31-.18-.52-.23-.56-.34a23.26,23.26,0,0,0-1-2.91c-2.55-4.91-3.42-10.37-5.08-15.57a28.31,28.31,0,0,1-1.27-8.63c0-3-.61-5.94-.69-8.92a26.76,26.76,0,0,1,.64-6.11c.41-1.9,1.44-3.67,1.81-5.57.71-3.59,2.67-6.65,3.93-10.07-.37,1.57.4,2.89.9,4.18.58,1.5,1.36,3.25,2.6,4.12,2,1.38,3.55,3.36,6.09,4,1.44.37,2.71,1.45,4.06,2.19a1.09,1.09,0,0,0,.65.14c2.08-.43,4.14.37,6.33-.27,3.69-1.09,6.1-4.16,5.48-8,1.14-.24,2.27-.56,3.42-.7a26,26,0,0,0,7.57-1.63,25,25,0,0,0,6.94-4.42c2.14-1.93,2.87-5.2,1.38-7.29a10.46,10.46,0,0,0-6.44-4.57l-4.14-.84a15.49,15.49,0,0,1,1.45-1.32c1-.71,2.15-1.32,3.17-2.05,2.42-1.74,4-4.2,5.59-6.64a2.06,2.06,0,0,0,.4-1.31c-.34-1.63-.65-3.32-2.19-4.36-1.71-1.15-3.11-2.77-5.47-2.76a18.72,18.72,0,0,0-8.15,2.11c-1.54.74-3.15,1.35-4.83,2.06a23.72,23.72,0,0,0-.78-2.47c-.83-1.87-2-2.4-4-2.06s-4.26.55-6,1.94c-.14.11-.45,0-.9,0-1.05-3.07.26-7.12-3.32-9.26-5.87,2.88-8.32,8.27-10.58,13.79-1.49-1.8-2.79-3.59-4.33-5.16-1.24-1.28-2.68-2.58-4.7-2.15a9.17,9.17,0,0,0-3,1.26c-1.38.9-3.08,1.78-3.8,3.12a10.46,10.46,0,0,0-1.47,6.17c.15,1.19.2,2.38.29,3.57.41,5.11,3.07,9.22,6.52,12.61a13.09,13.09,0,0,0,7.15,4c1.32.19,1.45.6.93,2-1.18,3.16-2.51,6.26-3.61,9.43a37,37,0,0,0-1.68,6.42,57.58,57.58,0,0,0-.28,6.31,6.61,6.61,0,0,1-.45,1.34c-.49-.57-.91-.85-1-1.21-.85-3.37-3.12-6-4.76-8.94-1.41-2.54-3.29-4.83-4.69-7.38-1.63-2.95-4-5.27-6.12-7.81L686,192.47c-2.16-2.61-4.29-5.24-6.47-7.83-.77-.91-1.71-1.68-2.45-2.61a65.79,65.79,0,0,0-9.16-8.89c-1.64-1.4-1.72-2.07-1.15-4.15a30.47,30.47,0,0,0,1-6.08c.14-2.33,0-4.68-.07-7,0-.39.11-.87-.08-1.16-1.38-2.17-.6-4.82-1.66-7.1-.69-1.45-.62-3.25-1.25-4.75-1.76-4.21-3.58-8.4-5.62-12.48-1.69-3.41-3.74-6.64-5.61-10a46,46,0,0,0-3.14-5.64c-2.18-2.84-4.66-5.46-7-8.16-1.61-1.83-3.26-3.64-4.88-5.46a11.16,11.16,0,0,0-1.07-1.28,39.94,39.94,0,0,1-8.57-9.31,1.44,1.44,0,0,0-.52-.49c-1.54-.81-2.15-2.26-2.66-3.79S625,83.06,624,81.88A9.47,9.47,0,0,1,622.52,78c-.27-1.12-.3-2.3-.56-3.42-.22-1-.23-2.29-1.64-2.29s-1.47,1.28-1.52,2.27c-.15,3-.19,6-.3,9.06-.06,1.5-.11,3-.25,4.5a38.84,38.84,0,0,0,.72,11.93c.38,1.77,1,3.5,1.37,5.27a107.52,107.52,0,0,0,3.77,12.41,33.23,33.23,0,0,0,1.24,3.29c1.15,2.36,2.4,4.66,3.6,7,.68,1.34,1.33,2.69,2,4a11.55,11.55,0,0,1-3.14-1.93c-1.25-1.07-2.33-2.34-3.64-3.32a49.59,49.59,0,0,0-6.26-4.25c-2.48-1.35-5.55-1.88-6.2-5.32a.55.55,0,0,0-.12-.21c-3.36-5-6.55-10.1-10.12-14.93-3.2-4.32-6.78-8.36-10.28-12.45a59.9,59.9,0,0,0-5-5.09c-2.13-2-4.37-3.8-6.59-5.67-2.65-2.22-5.28-4.48-8-6.6-2.23-1.74-4.57-3.33-6.91-4.93-3.19-2.19-6.42-4.33-9.65-6.46-2.43-1.6-5-3-7.32-4.77-2-1.59-3.66-3.57-5.78-5.1s-3.78-3.38-5.69-5c-2.32-2-4.57-4.17-7-6A46.2,46.2,0,0,1,519,29.56a17.81,17.81,0,0,0-2.24-2.44,1.81,1.81,0,0,0-2.71.05,19.11,19.11,0,0,0,1.33,2.44c1.88,2.56,4,5,5.72,7.62,2.08,3.17,4,6.45,5.75,9.8,2.47,4.69,4.73,9.49,7.09,14.23,1.86,3.73,3.39,7.64,6.28,10.79.83.9,1.1,2.35,2,3.19,2.88,2.83,4.56,6.66,7.89,9.12a52.67,52.67,0,0,1,4.5,4.1c.86.8,1.56,2,2.57,2.37,1.79.72,2.63,2.33,4.55,3.64a12.89,12.89,0,0,1-1.75-.18c-4.2-1.37-8.42-2.71-12.6-4.17-3.89-1.36-7.73-2.84-11.59-4.29-1-.39-2-.9-3.07-1.28-3.69-1.37-7.43-2.62-11.09-4.07a56.25,56.25,0,0,1-12.17-7,28,28,0,0,1-4.19-3.81,44,44,0,0,1-3.78-4.81c-1.23-1.8-2.29-3.73-3.72-6.09,3.1.36,5.54,1.16,8-.59,2.11-1.48,4.75-2.21,5.5-5-1.66-3.24-5-2.74-8-3.43l2.12-2.55a12.1,12.1,0,0,0,2.66-8.91,3.21,3.21,0,0,0-1.9-2.77,5.85,5.85,0,0,0-5.8,0c-1.32.61-2.76,1-4.31,1.51-.13-.77-.24-1.22-.28-1.67a39.76,39.76,0,0,0-3.06-11.9,15.26,15.26,0,0,0-2.34-3.79,2.1,2.1,0,0,0-3.16-.12,25.73,25.73,0,0,0-2.51,4.5,44.12,44.12,0,0,0-1.41,4.58l-4.15-4.56A10.07,10.07,0,0,0,473.71,21,4.45,4.45,0,0,0,471,24.66a13.79,13.79,0,0,0,.1,3,27.54,27.54,0,0,0,2.16,8.2c.55,1.15,1,2.35,1.49,3.53-4.35-1.34-7.71-4.5-12.33-4.81a5.12,5.12,0,0,0,.09,3.71c1.48,3.83,4.39,6.51,7.35,9.11A34.76,34.76,0,0,0,478,52.25c1.71.82,3.41,1.68,5.11,2.52-.07.18-.13.36-.2.53-.75-.15-1.49-.29-2.23-.47-4.63-1.1-9.22-2.46-14-2.53-2.94,0-5.92-.12-8.67,1.19-2.08,1-2.39,2.34-1,4.17a6.67,6.67,0,0,0,1.84,1.47,15.26,15.26,0,0,0,8.92,2.18c4.51-.3,9-1,13.77-1.6.94.7,2.21,1.64,3.5,2.55a2,2,0,0,0,1.06.44c2.81,0,5.67.26,8.28-1.21A9.57,9.57,0,0,1,496,61c1.46,2.4,2.71,4.8,4.31,6.94s3.44,3.83,5.3,5.86a5.23,5.23,0,0,1-1.51.11c-2.94-.62-5.87-1.32-8.81-2-3.25-.72-6.48-1.8-9.76-2-3.69-.26-7.26-1.31-11-1.17-3,.11-5.92-.73-8.9-1-4.14-.34-8.29-.55-12.44-.73s-8.05-.31-12.08-.32c-4.3,0-8.61,0-12.9.25a4.5,4.5,0,0,1-3.5-1,11,11,0,0,0-5.07-2.51c-2-.38-2.88.51-2.59,2.47.06.45.08.9.13,1.45l-8.28.74c-.22-.75-.38-1.44-.63-2.1-.52-1.38-2.16-2.55-3.27-2.38s-2.19,1.87-2.17,3.38c0,.62.07,1.23.11,1.94L399.3,70c.56-3-.89-4.7-3-5.93-1.9-1.11-3.51-.16-3.49,2.06,0,1.64.27,3.27.44,5a5.14,5.14,0,0,1-1.1.53c-2,.46-4,.84-6,1.29a5.32,5.32,0,0,1-3.59-.48,11,11,0,0,0-4.42-.63c-.61,0-1.22.68-2.15,1.24l2.9,2.32c-5.5,2.46-10.79,4.93-16,6.79a15.62,15.62,0,0,0-2.13-2.58,8.13,8.13,0,0,0-5.9-1.48c-3.06.31-3.77,1.35-3.1,4.38,0,.12-.11.28-.16.39-2.67.21-5.32.59-8,.59a54.22,54.22,0,0,0-11.71,1.59c-1.13.25-2.31.31-3.42.62-2.13.61-4.21,1.38-6.34,2a58.92,58.92,0,0,0-12.18,4.67c-3.1,1.73-6.05,3.74-9.14,5.51-1.42.81-3,1.8-4.53,1.88-2.29.11-4.35-1.16-6.18-2.53-2.38-1.77-4.55-3.87-7-5.45a95.36,95.36,0,0,0-8.86-4.62c-.81-.4-1.84-.34-2.65-.74A29.89,29.89,0,0,0,261,83.67c-1.57-.16-3.26-.69-4.69-.31a70.92,70.92,0,0,0-9.57,3.45c-2,.87-3.76,2.28-5.68,3.35-3.14,1.76-6.33,3.43-9.49,5.16-4.28,2.35-8.09,5.48-12.6,7.47-.85.38-1.46,1.32-2.13,1.95a1.46,1.46,0,0,0,1.95.91c1.26-.47,2.45-1.12,3.7-1.63a37.64,37.64,0,0,1,4.18-1.57,59.1,59.1,0,0,1,6-1.32c2.18-.36,4.39-.52,6.58-.78a35.4,35.4,0,0,1,5.83-.36c2.32.1,4.68-.45,7-.39,2.85.07,5.7.43,8.54.75.93.1,1.86.73,2.74.63a10,10,0,0,1,3.74.48c3.29.86,6.58,1.75,9.92,2.32,3.64.63,7.3,1.36,11.05.59a49.68,49.68,0,0,1,5.07-.5c-1.2,1-2.17,1.68-3,2.49-2.26,2.19-5.07,3.82-6.78,6.6a19.18,19.18,0,0,1-2.25,2.7,2.36,2.36,0,0,1-1.13.73c-2.55.5-4.51,2-6.43,3.63-1.57,1.3-3,2.82-5,3.44s-4.26,1.65-6.47,2.18a58,58,0,0,1-9.13,1.61c-4.54.31-9.11.2-13.66.29a10.56,10.56,0,0,1-2.29.14c-3.49-.71-7,0-10.43,0-1.25,0-2.5.07-3.74.19-2,.21-4,.52-6.07.71-1.48.14-3,.07-4.45.27-3.18.42-6.34.91-9.5,1.45a44.31,44.31,0,0,0-5.73,1.26c-2,.6-3.83,1.61-5.8,2.23a26.35,26.35,0,0,0-8.81,4.29c-2.16,1.72-4.76,3.07-6.44,5.16-1.81,2.24-4,4.25-5.27,7a52.35,52.35,0,0,0-2.26,4.86c-.56,1.52-1.52,3-1.68,4.54a70,70,0,0,1-2.7,11.66,27.93,27.93,0,0,1-1.49,4.2c-1.05,2.26-2.23,4.45-3.38,6.66-.78,1.5-1.38,3-.65,4.68,1.43.24,2.1-.31,3-1.41a99,99,0,0,1,6.83-7.52,63.07,63.07,0,0,1,4.55-4.41,42.5,42.5,0,0,1,5.22-3.94c1.79-1.11,4-1.65,5.64-2.88,2.41-1.76,5.2-2.36,7.89-3.26,3.13-1,6.31-2,9.49-2.83,2-.54,4-.87,6-1.32,3.48-.77,7-1.2,10.38-2.5,2.81-1.09,5.7-2,8.57-2.86,1.29-.4,2.69-.48,3.93-1,3.34-1.39,6.61-2.93,9.92-4.4.54-.24,1.12-.41,2.21-.8a17.86,17.86,0,0,1-2.4,3c-2.09,1.58-4,3.39-6.07,5-3.2,2.4-5.71,5.43-8.52,8.17-2.48,2.41-4.61,5.2-7.15,7.54a92,92,0,0,0-7.67,8.26c-.55.65-1.59,1-1.88,1.72-.73,1.79-2.13,2.93-3.38,4.25-.8.85-1.95,1.61-2.27,2.63-.6,2-2.18,3-3.31,4.51A19,19,0,0,1,197.1,195c.2-2.12.47-3.83.49-5.55a30.18,30.18,0,0,0-.34-5.46,7.86,7.86,0,0,0-1.39-3.46,3.74,3.74,0,0,0-4.29-1.35,6.67,6.67,0,0,0-3.64,5.21c0,1.83.11,3.66.27,5.49.39,4.45,2.65,8.27,4.26,12.68-2.34,3.35-4.86,6.92-7.35,10.51s-4.41,7.46-7.23,10.78c0-.76.25-1.45.31-2.15A52.3,52.3,0,0,0,178,209a17,17,0,0,0-.71-2.72c-.44-1.25-1.13-2.46-2.67-2.28s-3.16.72-3.77,2.46a9.73,9.73,0,0,0-.79,3.24,60.61,60.61,0,0,0,.9,11.63c.69,3.29,2.83,6.23,2.37,9.77a7.49,7.49,0,0,1-.66,2.59c-1,1.87-2.22,3.6-3.12,5.55-1,2.24-2.42,4.33-3.65,6.48l-.6-.15c0-2.27,0-4.55,0-6.82,0-4.24-.4-8.3-4.76-10.58a7.9,7.9,0,0,1-1.11.32,3.17,3.17,0,0,0-3,2.86,8,8,0,0,0-.35,2.57c.52,3.36,1.18,6.71,1.8,10.06.16.85.49,1.69.58,2.55.21,2.12.42,4.24.45,6.37,0,3.17-.06,6.34-.14,9.5a2.46,2.46,0,0,1-.43,1.35,19.26,19.26,0,0,0-3,7.43,8.38,8.38,0,0,1-1.14,1.83,21.24,21.24,0,0,1-.42-3.76c.09-1.11,0-2-1.18-2.25a1.87,1.87,0,0,0-2.31,1.23,34.26,34.26,0,0,1-1.51,3.25c-2.07,3.57-1.58,7.27-.61,11a17.83,17.83,0,0,0,1.51,4c.95,1.73-.79,2.8-.79,4.26a8,8,0,0,1-.06,1.19,5,5,0,0,1-.24,1.4,31.14,31.14,0,0,0-2.17,9.61,5.86,5.86,0,0,1-.37,1.17,7.14,7.14,0,0,1-.6-2.56c-.35-2.11-.66-4.23-2.44-5.79-1.61-1.42-3.3-1.49-4.47.23a30.49,30.49,0,0,0-2.23,4.42c-1,2.28.05,4.29,1.24,6a24.65,24.65,0,0,0,4.54,4.53,4.84,4.84,0,0,1,2,4.34c-.36,3.57-.9,7.13-1.37,10.82-.46-1.17-.86-2.26-1.31-3.31a5.2,5.2,0,0,0-6.85-2.7,4.88,4.88,0,0,0-2.64,3.47c-.82,3.31-.92,6.61,1,9.82a7.4,7.4,0,0,0,7.27,3.9c.53,0,1.05-.13,1.75-.22v10.07c-2.12-1.87-3.94-3.46-5.74-5.07-1.52-1.36-2.66-1.14-3.52.7a6.52,6.52,0,0,0-.51,1.33,10.29,10.29,0,0,0,5.22,11c1.46.77,3,1.29,4.73,2-.35,4.92.21,9.84.42,14.78s.29,10.06.43,15.54c-.69-1.05-1.22-1.72-1.6-2.46-1.35-2.59-2.62-5.22-4-7.82-1.12-2.18-2.32-4.32-3.41-6.51s-1.83-4.24-3-6.24c-2.82-4.95-5.36-10.1-9.52-14.16a27.81,27.81,0,0,1-3.27-3.76c-2.1-2.95-5-5.05-7.74-7.27-2.15-1.73-4.52-3.18-6.74-4.84a24.88,24.88,0,0,1-2-2A25,25,0,0,0,99.17,330a1.33,1.33,0,0,0-1.26.14,1.43,1.43,0,0,0-.22,1.23,2.62,2.62,0,0,0,1.49,2,2.71,2.71,0,0,1,1.39,1.21,64.67,64.67,0,0,1,3.55,7.77c1.1,3.21,1.78,6.57,2.62,9.88,1.65,6.44,3.93,12.6,7.9,18,1.12,1.53,2.25,3.05,3.44,4.51a79.45,79.45,0,0,0,6.41,7.6c2.47,2.37,4.77,4.95,7.86,6.71,2.85,1.63,5.39,3.77,8.76,4.34a14.16,14.16,0,0,1,2.51.88c.65,5.3,1.33,10.35,1.86,15.41.49,4.57,1.22,9.08,2.13,13.57.21,1,.91,2.4-.34,3.69-1.44-2.29-2.63-4.52-4.13-6.52-1.81-2.4-3.81-4.66-5.83-6.9-2.23-2.48-4.57-4.87-6.87-7.3a25.18,25.18,0,0,0-2.78-2.87c-2.39-1.83-4.86-3.55-7.36-5.23a58.4,58.4,0,0,0-11.52-6.44c-3.44-1.32-5.71-3.85-8-6.42A19.06,19.06,0,0,0,98,382.63c-.44-.33-1.31-.09-2-.11a5.41,5.41,0,0,0,0,1.71,11.21,11.21,0,0,0,3.88,5,9.53,9.53,0,0,1,2.42,2.26c2.41,4,4.71,8.08,7,12.16a46.71,46.71,0,0,0,6.92,9.6c3,3.14,6.34,6,9.48,9a53.66,53.66,0,0,0,9.34,7.71c4.59,2.74,9.2,5.36,14.76,5.65a3.75,3.75,0,0,1,.63,1c.7,2.58,1.4,5.17,2,7.77,1.33,5.6,2.5,11.21,5.1,16.45,2,4,3.51,8.32,5.39,12.43.74,1.61,1.25,3.44,3.23,4.93-.32-1.33-.48-2.23-.76-3.09-.41-1.19-.9-2.36-1.36-3.54-1.26-3.23-2.49-6.46-3.78-9.68a61.36,61.36,0,0,1-2.67-6.48c-1.25-4.56-2.2-9.21-3.21-13.54a37,37,0,0,0,1.48-3.75,13.41,13.41,0,0,1,3.09-6c1-1.08,2.17-2.08,3.13-3.23,3.38-4,7.32-7.65,9.76-12.4a106.55,106.55,0,0,0,4.59-9.88c1.18-3,1.91-6.24,2.85-9.37.84-2.79,1.72-5.58,2.53-8.38.24-.82.52-1.76-.79-2.31a8.43,8.43,0,0,0-1.34,1.16,40,40,0,0,0-3.27,5.13c-1.17,2-2.66,3.83-3.82,5.84a8.54,8.54,0,0,1-1.42,2.15c-1.9,1.69-3.93,3.24-5.87,4.89-2.53,2.16-5.27,4.1-7,7.13-1,1.79-2.42,3.37-3.21,5.23-1.25,2.91-2.11,6-3.15,9a8.86,8.86,0,0,1-.58,1.1A102.11,102.11,0,0,1,149,415.91c-.57-3.81-.93-7.66-1.37-11.5-.12-1.09-.14-2.19-.29-3.28-.32-2.17-.7-4.34-1.07-6.61,1.6-.69,3-1.22,4.33-1.89a30,30,0,0,0,10.49-9c.61-.81,1.3-1.57,1.83-2.42a68.56,68.56,0,0,1,3.93-6.51c2.78-3.59,3.17-8.09,4.94-12.06,1.39-3.12,1.88-6.63,2.89-9.94,1.06-3.49,2.13-7,4.46-9.94.24-.31.38-1.06.2-1.25a1.84,1.84,0,0,0-1.43-.56,3,3,0,0,0-1.42,1.09c-2.43,3.06-4.69,6.26-7.25,9.2-2.16,2.5-4.67,4.7-7,7.05-1.68,1.69-3.32,3.42-5,5.14s-3.49,3.47-5.12,5.31a24.13,24.13,0,0,0-3.67,4.93,20.29,20.29,0,0,1-2.77,3.25c-.17-3.15.22-5.89-.57-8.55a2.8,2.8,0,0,1,0-.71c0-2.39,0-4.78-.18-7.15a12.79,12.79,0,0,1,1.22-6.81,8.66,8.66,0,0,0,1.91,0c1.37-.33,3-.47,4-1.27a37.06,37.06,0,0,0,5.5-5.2,24.58,24.58,0,0,0,3.31-4.93c1.14-2.22,0-5.15-2.14-5.44-3.42-.48-6.67-.12-9,2.86-1.23,1.56-2.42,3.15-3.64,4.71-.25.32-.56.6-1,1,0-3-.1-5.62,0-8.28.09-1.87.39-1.92,2.27-2.46s3.63-1,4.89-2.64c1.39-1.83,3.08-3.45,4.41-5.33a43.87,43.87,0,0,0,3.76-6.32c1.05-2.21.39-3.19-2.07-3.5a4.42,4.42,0,0,0-2.51.3,15.23,15.23,0,0,0-5.47,4.43c-1.38,2-2.92,3.88-4.47,5.93a12.56,12.56,0,0,1-.29-2.84c.33-2.71.83-5.41,1.25-8.11.35-2.33.73-2.74,3.05-3.31a4.17,4.17,0,0,0,1.28-.55c1.58-1,3.14-2.08,4.69-3.13a29.45,29.45,0,0,0,10.25-12.39,9,9,0,0,0,.36-2.2c-7.19.21-12.8,2.83-17.18,8.25a6.44,6.44,0,0,1,.14-2.14c1-3.95,2.12-7.86,2.86-11.85a3.07,3.07,0,0,1,2.6-2.86l2.1-.5c3.36-.85,6.87-1.34,9.86-3.26a41.4,41.4,0,0,0,5.89-4.37,4.26,4.26,0,0,0,1.43-4.32,5.42,5.42,0,0,0-7.48-3.13,26.55,26.55,0,0,0-8.81,6c-.42.47-.81,1-1.6.66.37-1.38.66-2.69,1.08-4,.35-1,1.26-2,1.2-3a6.53,6.53,0,0,1,.9-3.1c.33-.8.76-1.56,1.07-2.36.83-2.15,1.57-4.32,2.45-6.45a9.16,9.16,0,0,1,1.28-1.79,20.55,20.55,0,0,0,3.26.83,24.07,24.07,0,0,0,17-4.91c3.31-2.53,4.93-5.88,4.11-10.16a1.48,1.48,0,0,0-1.64-1.4,18.08,18.08,0,0,0-4.17.59c-2.18.69-4.25,1.74-6.41,2.5a18.86,18.86,0,0,1-7,1.37l7.78-13.85a30.52,30.52,0,0,0,3.83,0,13.34,13.34,0,0,0,3.69-1,52.94,52.94,0,0,0,5.24-2.83,19,19,0,0,0,7.6-8.27c.77-1.63.14-3.08-1.64-3.16-3.06-.14-6.16-.24-8.91,1.56a4.27,4.27,0,0,1-1.47.28,8.36,8.36,0,0,1,1.44-2.43c1.18-1.78,2.29-3.6,3.42-5.41,1.38-2.21,3.64-3.76,4.64-6.28a1.34,1.34,0,0,1,1.81-.71,10.67,10.67,0,0,0,1.88.29c3.64.46,7.11-.51,10.57-1.37,3.09-.76,5.52-2.76,7.93-4.69a6,6,0,0,0,1.54-2.12,2.35,2.35,0,0,0-1.93-3.52,56.84,56.84,0,0,0-7.83,0c-2.17.17-4.31.74-6.81,1.19l1.1-1.29,7.62-8.72q5.42-6.15,10.84-12.3a13.22,13.22,0,0,1,1.09-.89c1.73-1.59,3.7-3,5.11-4.82a56,56,0,0,1,5.67-5.95c1.81-1.77,4.08-3.08,5.81-4.8,2.14-2.12,5.05-3.62,6.3-6.63.13-.32.6-.52.93-.74,1.56-1.06,3.12-2.12,4.7-3.14.57-.37,1.19-.63,1.79-.94a25.88,25.88,0,0,1-2.91,6c-1.43,2.17-3,4.23-4.56,6.34a2.22,2.22,0,0,0-.34.6c-1,3.12-2.06,6.22-2.91,9.38-1.06,4-1.95,8-2.87,12-.59,2.59-1.13,5.2-1.6,7.82-.19,1,0,2.18-.17,3.23-.53,2.79-1.3,5.53-1.77,8.33-.32,1.95-1.07,3.48-2.54,4.2-.05.74.1,1.37-.15,1.64A53.86,53.86,0,0,1,229,207a34.06,34.06,0,0,0-5.13,5.2c1,1.55,1.4,1.76,2.38,1,4.72-3.89,10.17-6.83,14.52-11.2,1.94-1.95,3.91-3.88,5.77-5.9a28.6,28.6,0,0,0,3.07-3.88c.93-1.42,1.56-3,2.44-4.49,1.27-2.1,2.73-4.09,3.94-6.23a40.13,40.13,0,0,0,3-6.2c.8-2.22.93-4.69,2.5-6.64a1.73,1.73,0,0,0,.36-.87c.37-3.76,2.13-7.06,3.39-10.53.46-1.25.78-2.56,1.24-3.81,1.23-3.34,2.51-6.67,3.76-10a31.51,31.51,0,0,0,1-3.11,42.68,42.68,0,0,1,1.39-5.59,94.61,94.61,0,0,1,4.31-8.75c1.54-2.8,3.76-5.13,5.52-7.8a37,37,0,0,1,6.43-7.1c2.13-1.9,4.09-4,6.24-5.85,1.72-1.49,3.6-2.8,5.44-4.14a35.71,35.71,0,0,1,3.37-2.23c2.6-1.47,5.24-2.88,7.88-4.29a38.6,38.6,0,0,1,5.83-3c4.27-1.43,8.65-2.56,13-3.76,1.58-.43,3.2-.72,4.53-1,.75,1.62,1.09,3.23,2.06,4.19s2.72,1.46,4.11,2.14c-.9,2.14-3,2.7-4.59,3.74s-1.79,1-3.31-.32c-2.25-1.87-7.35-2.44-9.92-1.1a2.66,2.66,0,0,0-.47,4.66,18.59,18.59,0,0,0,3.15,1.59c.61.28,1.25.48,2,.78-1.43,1.77-3.37,2.47-4.72,3.78s-2.69,2.91-4.53,3.75c-1.08-.9-2-1.75-3-2.52a6.12,6.12,0,0,0-6.21-1.15,2.91,2.91,0,0,0-1.76,4.33,5,5,0,0,0,3.31,2.55c1.11.29,2.24.53,3.58.85l-7.59,8.34c-2.39-2.92-5.9-2.91-8.49-2.15a2.6,2.6,0,0,0-1.24,4.22,7.38,7.38,0,0,0,2.25,1.72,28.62,28.62,0,0,0,3.41,1.19l-6.86,13.82a10,10,0,0,1-2-.79c-3.1-2-6.28-1.19-9.35-.14-1.9.64-2.19,2.71-.92,4.26a3.35,3.35,0,0,0,2.87,1.39c2.69-.06,5.39,0,8.24,0l-3.57,11.93c-.45.08-1.22.21-2,.37-2.57.52-5.14,1-7.69,1.6a6.61,6.61,0,0,0-2.14,1,2.22,2.22,0,0,0-1,2.63,3,3,0,0,0,2.43,2,14.93,14.93,0,0,0,8.8-.28l1.64-.56c.59,1.83.89,3.47-.12,5.1-3.11.42-5.25,2.45-7.22,4.45a6.48,6.48,0,0,0-2,5.35c.34,3,2.81,4.81,5.68,3.88,1.58-.52,3.21-.82,4.23-2.39.33-.51,1.14-.7,2-1.18.71,2.35,2,3.88,4.36,3.52,2.87-.45,2.88-3.18,3.65-5.49.72.61,1.29,1.12,1.89,1.6a3,3,0,0,0,4.36-.71c1-1.9,1.76-4.6-.42-7.08a25.8,25.8,0,0,0-5.2-4.76,12,12,0,0,1-1.7-1.86c1.25,0,1.87.05,2.47,0a11.61,11.61,0,0,0,2.11-.43,3.08,3.08,0,0,0,1.3-5.08,13.13,13.13,0,0,0-10.24-4.1c-.54,0-1.08,0-2,0l3-8.42c.59.54,1,1,1.49,1.35A9.4,9.4,0,0,0,305,150.6a2,2,0,0,0,2.06-1.33c.39-.88.81-1.8,0-2.68-1.68-1.89-3.23-3.9-5.59-5.06-1.4-.7-1.53-1.23-.89-2.69a51.89,51.89,0,0,1,2.62-5.77c1.2-2,2-4.49,4.31-5.69.57.68,1.06,1.31,1.6,1.9,1.63,1.77,3.29,3.49,5.7,4.22,1.46.45,3.19-.32,3.32-1.79a4.59,4.59,0,0,0-1.27-4.16c-2-1.72-4-3.3-7-3.72,2.68-3.12,4.93-6,8.06-8.22a17.76,17.76,0,0,0,1.17,1.57c2.22,2.35,4.33,4.85,8,5,1.55,0,2.34-.54,2.07-2a4.75,4.75,0,0,0-.8-2.22,45.21,45.21,0,0,0-3.52-3.54c-.85-.8-1.76-1.55-2.81-2.46a25.43,25.43,0,0,1,8.44-6.51c.7,2.55,1.07,4.95,3.63,6.23,1.36.68,2,.52,3.06-.64s.78-2.71.9-4.1c.2-2.23-1.19-4-2-6.25,1.58-.91,3.17-1.78,4.7-2.72s2.83-2.28,5-2.58a11.74,11.74,0,0,0-.38,2.16c.06,2-.64,4.43,2.22,5.36.28.09.53.57.63.92a1.8,1.8,0,0,0,1.77,1.32c1.12.15,2.23.4,3.68.67-1.35,1.23-2.4,2.17-3.46,3.12-.66-.45-1.31-1.27-1.95-1.26-2.5,0-5-.66-7.53.4-2,.84-2.31,1.88-.69,3.23a5,5,0,0,0,1.63.91c1.4.45,2.82.8,4.23,1.19-.69,1.87-1.21,2.28-3.26,2a6.84,6.84,0,0,0-4.65,1.19c.58,1.91,2.51,1.63,3.39,2.39-1.77.65-3.69,1.25-5.52,2-1.2.53-1.28,1.17-.64,2.3a2.55,2.55,0,0,0,2.07,1.42,5.79,5.79,0,0,0,4.29-1.11c1-.75,1.95-1.56,2.92-2.34,2.22,2.89,4.09,2.86,6.4-.12a15.3,15.3,0,0,0-1.22-3.19,21.11,21.11,0,0,0-2.67-2.87l2.53-2.65c.62,1.94,1,3.63,3.25,3.61,2.05,0,2.57-1.54,3.24-3.08-.64-.93-1.28-1.84-1.9-2.75s-.77-1.6.1-2.34c1.1-.92,2.22-1.83,3.58-3,.05,2,.51,3.4,2,4.14.78.38,1.46,1.7,2.48.83s.68-2.08.34-3.13a12.26,12.26,0,0,0-1.28-2.28c-.27-.46-.59-.9-1-1.57l4.55-3.38a8.51,8.51,0,0,0,1.51,1.84,10,10,0,0,0,3.34,1.65c1.5.29,2.74-1.49,2.18-3.18A25.79,25.79,0,0,0,369.74,96a5.83,5.83,0,0,1,.51-.45c.39-.28.79-.55,1.19-.81,1.37-.88,1.47-.77,2.7.46A10.24,10.24,0,0,0,376.85,97a2.34,2.34,0,0,0,2.95-.92,2.53,2.53,0,0,0,.36-3.1c-.55-.85-1-1.74-1.66-2.79l5.89-3c.09,1.28.1,2.15.23,3a3.15,3.15,0,0,0,3.76,2.46c1.38-.3,1.95-1.64,1.27-3.45a45.35,45.35,0,0,0-2-4.09c1.53-.85,2.74-2.34,4.43-2.34,1.13,1.1,2.05,2.07,3.06,2.94a2.35,2.35,0,0,0,3.08.19c.75-.54.89-2.1.36-3.34-.34-.78-.73-1.53-1.24-2.59l8.21-3.34a4.68,4.68,0,0,0,3.62,4.87,2.82,2.82,0,0,0,3.17-1.12,2.74,2.74,0,0,0-.1-3.15L410.75,75l8.3-2.73c.12,1.15.16,2,.31,2.85a3.42,3.42,0,0,0,4.33,2.46,3.56,3.56,0,0,0,2.09-3.76c-.3-1-.81-2-1.32-3.23a53.93,53.93,0,0,1,7.06-1.33c3.56-.21,7.15,0,10.73,0,1.83,0,3.66.17,5.49.2,2.71.05,5.42,0,8.13.08,1.74.06,3.48.29,5.22.4,3.56.22,7.13.38,10.69.63a19.13,19.13,0,0,1,2.82.72c-6.08,3-12.29,4.6-17.5,8.2a80,80,0,0,0-14.37,12.73c-.24-3.34-2.27-4.93-4.26-6.46a6.24,6.24,0,0,0-2.8-1.06c-1.93-.29-3.46.84-4.9,1.89a12.4,12.4,0,0,0-5.5,8.45c-1.22-.44-2.28-.74-3.27-1.18a46.3,46.3,0,0,0-4.52-2.13c-2-.65-4.17-.91-6.22-1.46-3.33-.9-6.74-.67-10.11-1a1.64,1.64,0,0,0-.7.06,5.63,5.63,0,0,0-3.35,6.11c.29,1.5.51,3,.79,4.68h-3.64a21.92,21.92,0,0,0-7.54,1c-1.92.68-2.86,2.13-2.17,3.88a11.64,11.64,0,0,0,4.81,6,26.58,26.58,0,0,0,10.06,3.79,25.47,25.47,0,0,1,4.47,1.34c-.51,2.26.6,3.57,2.25,4.65,2.09,1.37,4.46,1.41,6.82,1.48,4.86.14,9.35-1.34,13.95-3.33.13,1,.23,1.95.36,2.87a10.5,10.5,0,0,0,5.16,7.75,4.83,4.83,0,0,0,3.43.55,5.9,5.9,0,0,0,4.54-4.33c.29-1.21.78-2.38,1.23-3.73l8.74,4c3.53-3.3,1.62-6.78.65-10.32,1.25.35,2.22.7,3.21.9,2.86.58,5.72,1.2,8.61,1.61a23.11,23.11,0,0,0,5.57.16,6.12,6.12,0,0,0,2.92-1.48,3,3,0,0,0,.25-4.24,22.53,22.53,0,0,0-9.25-5.42c-3-.84-5.91-1.8-8.9-2.54-2.75-.67-5.54-1.18-8.34-1.62-2-.31-4-.39-6.32-.6,2-3,3.73-5.6,5.5-8.18a13.34,13.34,0,0,1,1.56-1.8,38.27,38.27,0,0,1,2.89-2.81c3.59-2.93,7.05-6.06,10.87-8.65,5.05-3.44,10.94-5.3,16.39-8A9.53,9.53,0,0,1,482.1,72c.78.14,1.55.29,2.33.42,3.81.62,7.64,1.11,11.42,1.88,3.1.63,6.14,1.62,9.21,2.4,4.61,1.17,8.91,3.19,13.38,4.76q4.8,1.68,9.56,3.47c1.64.62,3.25,1.31,4.86,2,1,.43,1.94,1,3,1.39,4.16,1.35,8.34,2.63,12.52,3.94s8.16,2.55,12.21,3.9a21.93,21.93,0,0,1,3,1.56l-.21.57-13.72-3.53c-1-.25-2-.51-2.91-.8a38.21,38.21,0,0,0-3.95-1.22c-1.83-.34-3.71-.46-5.57-.66a19.07,19.07,0,0,1-4-.44c-3.16-1.06-6.37-1-9.62-1-1.57,0-3.14-.24-4.71-.39A19.14,19.14,0,0,0,515.3,90c-2.8.28-5.62.11-8.43.31-3.49.25-7,.29-10.5.78a28,28,0,0,1-15-1.7A23.4,23.4,0,0,1,477,86.55a1.46,1.46,0,0,0-2.11.08c-.61.61-.41,1.6.46,2.29,2.4,1.92,4.7,4,7.14,5.83,2.9,2.17,5.38,5,9,6.23,1.81,2.2,4.69,2.51,7,3.93a19.33,19.33,0,0,0,4.8,2c3.25,1,6.61,1.56,9.83,2.59,4.21,1.35,8.6,1.41,12.91,1.94,3.52.44,7.08.53,10.63.69s7.38.23,11.06.32c1.81,0,3.62-.09,5.42,0,2.91.21,5.77,1.06,8.74.71a6.18,6.18,0,0,1,1.19.16c1.84.22,3.69.46,5.54.63,2.5.23,5,.27,7.49.62,4.71.67,9.41,1.49,14.11,2.26,3.4.56,6.77,1.2,10.12,2.09s7,1.31,10.18,2.93a104.45,104.45,0,0,1,10.69,5.63c3.21,2.13,6,4.89,9,7.42a23.27,23.27,0,0,1,2.89,2.81c3.47,4.17,6.79,8.46,10.32,12.58,2.64,3.08,5.5,6,8.3,8.9,1,1.08,2.27,2,3.31,3.06a96.39,96.39,0,0,1,8.16,9.54,14.85,14.85,0,0,0,2,1.95c1.4,1.28,2.9,2.47,4.22,3.83,2.42,2.48,4.83,5,7.08,7.62,3.47,4,6.8,8.18,10.19,12.29.84,1,1.67,2.07,2.53,3.09,1.37,1.65,2.91,3.17,4.12,4.93,2.2,3.18,4.18,6.51,6.32,9.74a40.16,40.16,0,0,1,4.59,9.74c1.29,3.92,2.55,7.85,3.65,11.82.68,2.47,1.05,5,1.57,7.56-3.56-2.49-6.73-5.14-9.89-7.8a1.73,1.73,0,0,1-.56-2.3,11,11,0,0,0-.63-10.15,4.57,4.57,0,0,0-4.91-2.55c-2.25.22-2.7.63-3.42,3.25-.23.84-.3,1.72-.55,2.55s-.62,1.59-.9,2.29H685a33.54,33.54,0,0,0,0-4.72,12.6,12.6,0,0,0-1.3-3.74,1.72,1.72,0,0,0-2.45-.73c-2.73,1.08-4.94,2.58-5.22,5.68-2.61.44-2.61.44-4.66-.53,1.88-2.49,1.47-5.22.74-7.94-.47-1.72-1.43-2.25-3.21-1.89-3.23.64-6.54,3.56-6.34,7a6.06,6.06,0,0,1-.12,1.16l-4.72,3.18c-.44-1.05-.73-1.86-1.1-2.63a5.54,5.54,0,0,0-4.47-3.18c-2.33-.33-5,1.23-5.54,3.23s1,5.84,2.69,6.46a9.13,9.13,0,0,0,8.34-.92c1.14-.71,2.17-2.09,4-1.77-.22,1-.42,1.85-.57,2.71a6.15,6.15,0,0,0,.92,4.53c1.17,1.78,3,2,4.91,1.53a4.58,4.58,0,0,0,3.27-3.45c.38-1.57.58-3.19.85-4.76,7.05.06,9,.59,10.08,2.77-1.28-.12-2.52-.31-3.76-.35a3.93,3.93,0,0,0-4.15,3.1,4,4,0,0,0,2.5,4.63,13.84,13.84,0,0,0,3.77.39,4,4,0,0,0,4.19-2.47c.55-1.27,1.05-2.57,1.57-3.85h3.67c.13,1.41.78,3,.23,3.83a4.48,4.48,0,0,0-.51,3.12,4.19,4.19,0,0,0,3.84,4c.95.06,1.91,0,2.86,0a3.51,3.51,0,0,0,2.83-1c.66-.79,1.22-1.66,1.91-2.61,5.62,3.84,10.59,8.43,13,15.55-.63,0-.94.07-1.25.05s-.63-.14-.94-.15c-3.18-.06-5,2-4.6,5.2a13,13,0,0,0,4,7.53c.42.44.82.9,1.34,1.47-.75.44-1.3.73-1.82,1.07-1.55,1-1.8,2.15-.6,3.57a11.48,11.48,0,0,0,2.7,2.31,29.78,29.78,0,0,0,9.07,3.56,5.8,5.8,0,0,1,4.28,4c1.12,2.85,2.07,5.77,3.18,8.62,1,2.59,2.24,5.08,3.13,7.7a40.71,40.71,0,0,1,1.06,5.32c-1.35-1.73-2.22-3.61-3.38-5.3-1.55-2.27-2.34-5.11-4.82-6.73-.22-.15-.22-.6-.4-.84-1.42-1.89-2.51-4-4.43-5.54-3.6-3-7-6.2-10.39-9.39s-6.72-6.44-10.08-9.65c-1.74-1.65-3.42-3.36-4.19-5.69s-1.58-5-2.15-7.52c-.29-1.25-.84-1.77-2.32-1.82a9.64,9.64,0,0,0-.68,2.93q.57,6.93,1.45,13.84c.17,1.32.88,2.55,1.16,3.86a49,49,0,0,0,4.85,12.72c.56,1,.94,2.18,1.56,3.18,1.78,2.89,3.61,5.74,5.47,8.58s3.17,5.65,5.37,8.09a28.24,28.24,0,0,1,3.58,4.9,59.79,59.79,0,0,0,5.34,7.29c1.64,2.09,3.47,4.05,5,6.22s3,4.8,4.47,7.2a17.91,17.91,0,0,1,1.54,2.42c2.06,5.13,4,10.33,4.59,15.86.36,3.15.37,6.33.52,9.5a2.55,2.55,0,0,1-.2.93c-1,2.91-1.65,6-4.26,8.08a4.09,4.09,0,0,0-.78,1.19c-1.28,2.27-2.33,4.67-3.54,6.94a36.83,36.83,0,0,0-3.44,11.07,53.17,53.17,0,0,0-.25,14,3.25,3.25,0,0,1-.08,1.62,16.32,16.32,0,0,0-1.6,8c.13,3.36-.12,6.75,1.24,10a12.58,12.58,0,0,1,.36,1.64c.32,1.29.67,2.58,1,3.88l1,3.94-.46.25c-1.15-1.05-2.36-2.05-3.43-3.19a2.86,2.86,0,0,1-.62-1.75,46.79,46.79,0,0,0-1.46-10,61.38,61.38,0,0,0-2.41-8.17c-1.08-2.63-2.68-5-4-7.56A26,26,0,0,0,707.1,395c-1.86-1.84-3.5-3.89-5.29-5.79a36.88,36.88,0,0,0-2.81-2.48,13.73,13.73,0,0,1-1.17-.83A31.43,31.43,0,0,0,690.4,380a5.67,5.67,0,0,1-2.72-3.21c-.54-1.58-1.3-3.07-1.84-4.65-.45-1.3-1.27-1.89-2.92-2a10.08,10.08,0,0,0-.31,2.52,14.75,14.75,0,0,0,1,3.42,54.35,54.35,0,0,1,2.42,5.56c.8,2.86,1.23,5.82,1.82,8.74.52,2.55,1,5.12,1.59,7.65.57,2.36,1.25,4.69,1.94,7s1.06,4.54,2.13,6.51c1.77,3.26,4,6.27,6,9.4.31.48.57,1,.81,1.43a37,37,0,0,1-4.85,1.86c-2.4.55-4.18,2.06-6,3.52a32.41,32.41,0,0,0-3.26,3.64,13.75,13.75,0,0,0-3.14,12.45,6.48,6.48,0,0,0,5.47,5.52c2.34.36,4.71.47,7.07.69,2.53.24,5.12-.16,8.17.8-2.42,1.21-4.39,2.17-6.34,3.18-3.49,1.78-6.1,6.65-5.15,11.37.18.91.6,1.68,1.65,1.78,2,.18,3.92.31,5.88.48,1.16.1,2.64-.19,3.39.42a5,5,0,0,1,2,3.68c0,1,.36,2,.47,3a4.49,4.49,0,0,0,3.49,4,22.42,22.42,0,0,0,3.95.43,7.18,7.18,0,0,0,5.82-2.2,16.26,16.26,0,0,0,4.7-7.57c.11-.44.53-.8,1.11-1.62a16,16,0,0,1,.13,1.89c-.14,1.25-.3,2.5-.51,3.74-.44,2.57-.8,5.16-1.43,7.69a49.34,49.34,0,0,1-2.05,6c-1.08,2.8-2.19,5.59-3.37,8.34-1.31,3-2.78,6-4.07,9.06-2.23,5.26-4.59,10.42-8.26,14.88-.28.33-.16,1-.19,1.18-1.48.89-2.78,1.81-4.19,2.48-3,1.43-6.05,2.69-9.05,4.1-1.23.58-1.77.36-1.69-1a4.29,4.29,0,0,1,.58-1.78,20.51,20.51,0,0,1,2.29-3.62c1.49-1.69,2.57-3.83,4.75-4.84,1.68,1.79,3.19,2.17,4.2.86a11.61,11.61,0,0,0,1.74-3.59,4.78,4.78,0,0,0,0-2.57,2.44,2.44,0,0,0-1.29-1.51,2.33,2.33,0,0,0-1.89.49c-1,.9-1.62,2.38-2.74,2.94a15.34,15.34,0,0,0-5.18,4.78,6,6,0,0,1-1.31.93c-.28-2.79-.34-5.4-.84-7.93-.77-4-1.85-7.87-2.76-11.81-.24-1-.76-1.92-1.77-2a6.36,6.36,0,0,0-3.43.54c-.47.26-.29,1.71-.36,2.62a7.58,7.58,0,0,0,.09,1.43c.4,3.18.75,3.54,3.86,4.19a1.54,1.54,0,0,1,.42.22c2.41,5,2.71,15.78.46,20.07a7.27,7.27,0,0,1-.24-1,7.76,7.76,0,0,0-5.32-6.66,5.63,5.63,0,0,1-2.1-1.8c-1.5-1.85-2-4.13-2.54-6.38-.63-2.52-2-2.93-3.72-3.06a4.34,4.34,0,0,0-4.35,3.08,20.07,20.07,0,0,0-1,5.3c-.06,2.91.27,5.83.32,8.74,0,1.47.15,2.94-1.4,4.07a4.43,4.43,0,0,0-1.37,2.94,40.3,40.3,0,0,0,.81,12,16.49,16.49,0,0,0,1.1,4.37c1.65,3.18,3.3,6.32,2.89,10.07a7.32,7.32,0,0,1,1.24.46c1.42.85,2.14,4.1,1.13,5.28-1.68,2-3.42,4-5.16,5.9-1.11,1.23-2.24,2.45-3.43,3.61-2.19,2.13-4.63,4-6.69,6.27a110.41,110.41,0,0,1-10.91,10.61c-1.25,1-2.41,2.19-3.61,3.29-2.56,2.38-4.95,5-7.71,7.09-4.07,3.1-8.41,5.86-12.63,8.76-2,1.38-4,2.8-6,4.14-3.85,2.56-8.23,4.24-11.87,7.15-.3.24-.77.27-1.08.49-2.39,1.7-5.38,2.18-7.75,3.93-1.78,1.32-3.85,2.29-5.49,3.75s-3.58,2.16-5.37,3.37c-.06-.3-.11-.4-.09-.44a5.71,5.71,0,0,1,.64-.66A99.36,99.36,0,0,0,597.14,620c1.8-1.89,3.87-3.53,5.55-5.52a72.06,72.06,0,0,0,6.86-10.07c.84-1.43,1.6-2.9,2.3-4.4q1.67-3.56,3.19-7.17c1.59-3.8,3.13-7.62,4.67-11.43a2.94,2.94,0,0,0,.16-1.18,1,1,0,0,0-1.7-.77,2.39,2.39,0,0,0-.64,1,12.91,12.91,0,0,1-5.41,6.45c-1.17.65-2.37,1.27-3.5,2-4.13,2.66-8.24,5.38-12.37,8a63.36,63.36,0,0,0-14.47,13,43.36,43.36,0,0,0-7.32,11.75c-1,2.52-2.51,4.84-3.68,7.32a59.6,59.6,0,0,1-5.61,8.81c-1.22,1.7-2.44,3.6-4.62,4.24a98.36,98.36,0,0,1-11.5,3,90.84,90.84,0,0,0-16.41,4.61c-3.51,1.26-6.95,2.75-10.35,4.29a16.29,16.29,0,0,0-5.63,3.5c-1.19,1.3-2.8,1.67-4.49,2-3.79.71-7.69,1.19-11.27,2.52-2.88,1.08-5.79,2-8.72,2.89-3.15.94-6.34,1.72-9.52,2.54a71.57,71.57,0,0,0-7.6,1.91c-4.11,1.56-8.25,1.35-12.46.92-1.93-.2-3.88-.46-5.82-.49-4.07-.08-8.13,0-12.2-.05-2.34,0-4.66-.33-7-.3-4,0-8-.23-12-.48-1.55-.09-3.09-.46-4.63-.7,2.79-1.2,5.6-1.88,8.34-2.81,4-1.34,7.93-2.72,11.77-4.36,3-1.27,5.69-3,8.6-4.44a34.26,34.26,0,0,0,5.71-3.67,74.63,74.63,0,0,0,6.43-4.72c2.12-2,4.86-3.25,7-5.17,2.92-2.55,6.19-4.65,8.77-7.65,2.1-2.44,4.81-4.35,7.46-6.68,1.08,2.11,3.3,3,5,4.46s4,1.88,5.78,3.28c-.37.47-.75.93-1.12,1.39.87,1.38,2,1,3,.7l4.32-1.14a9.93,9.93,0,0,1-2.39,2.33c-1,.79-.89,1.56.21,2.6a21.85,21.85,0,0,0,2.39-1.72c1-.92,1.87-1.13,2.92-.31a5.94,5.94,0,0,1,1.36,1.63,4.63,4.63,0,0,0,2.3,2.18c1.1-.51,1.41-1.23.82-2.16s-1.21-1.64-1.8-2.47c-.48-.67-.94-1.36-1.4-2l.33-.37a10.48,10.48,0,0,0,2.41.71,1.9,1.9,0,0,0,1.44-.88c.33-.67-.21-1.27-.9-1.36s-1.58-.13-1.93-1.2l2.81-1.75-.26-.57-4.26,1.16c.35-1.67.29-2.93-.88-4L504,631.22l-1.41-2.51-.52.15c.11,1.74.21,3.49.34,5.58a26.93,26.93,0,0,1-16-6.93,6.09,6.09,0,0,1,4.37-1.88,38.33,38.33,0,0,0,5.38-.59,63.91,63.91,0,0,0,7.63-2.45c4.26-1.63,8.48-3.4,12.7-5.14,1.68-.69,3.29-1.57,5-2.14a22.16,22.16,0,0,1,3.82-.58c-.44,1.93-.3,3.73,1.21,5.12,1.65-.41.94-1.57.91-2.4,0-1.19-.79-2.4.32-3.79.44.77.8,1.35,1.11,2s.69,1.3,1.61,1c.9-1.79.86-1.76-.09-3.37-.38-.65-1.42-1.09-.95-2.19,4,2.53,4,2.53,5.11,1.19l-2.9-2.93c.83-.64,2.31.16,2.26-1.62l-2.67-.6c.86-1.87,2.86-2.94,3.34-5.35-2.27,1.24-3.38,3.45-5.66,4.38-.19-2.45,2.4-4.45.53-7.08l-3.1,6.65-4.49-2.35-.3.44,2.41,2.66a6.76,6.76,0,0,0-1.59.41c-.36.21-.9.76-.83.93a2,2,0,0,0,1,1,23.58,23.58,0,0,0,3.07.46,14.75,14.75,0,0,1-2.08,1.93,31.66,31.66,0,0,1-8.33,3.78,8.55,8.55,0,0,0-1.49.73c-1.69.82-3.34,1.77-5.1,2.43-3.46,1.28-6.95,2.5-10.49,3.56-3.3,1-6.68,1.74-10,2.59l-.19-.4q8.24-9.58,16.45-19.18l2.14,1.72,1.54-3.24c1.91-.67,2.65,1.46,4.13,1.79,1.09-1.8,1-1.93-.28-2.89a17.09,17.09,0,0,1-1.58-1.49c.77-1.13,2.67-.75,2.41-2.7h-3.21l3.76-3.85-.31-.33-4.34,2.82c-.15-3.81-.15-3.81-1.81-4.26.71,1.88-.29,3.3-1,5.15-1-1-1.81-2.47-2.7-2.54-1.3-.1-1.9-1.11-3.39-1.57a26.25,26.25,0,0,0,1.12,3,24,24,0,0,0,1.76,2.5c-3.4.79-3.44.84-2.69,2.93h1.63l.13.38-2.5,1.59c-.29,1.47-.2,2.76-.77,3.61-1.84,2.71-4.24,5-6.19,7.64-2.25,3.07-4.73,6-7.08,9-.88,1.13-1.24,2.7-2.94,3.32a7.92,7.92,0,0,1-.61-1.75c-.3-2.35-.53-4.72-.77-7.09a31.12,31.12,0,0,1,1.43-11.5c.1-.34.53-.58,1.15-1.23.09,1.52.18,2.53.21,3.54,0,.83.32,1.48,1.2,1.42s1.42-.55,1.19-1.63c-.27-1.29-.41-2.62-.65-4.25L488.2,607c1.16-1.36,1.2-1.56.49-2.47s-1.53-1.91-2.52-3.15a7.42,7.42,0,0,1,1.47-.06c1.07.21,2.13.57,3.21.69,1.43.15,2.89.14,3.6-1.51a2.57,2.57,0,0,0-3.06-1.18,12,12,0,0,1-3.57-.11,3.88,3.88,0,0,1,1.77-2.18c1.86-.68,2-2.8,3.45-3.82.2-.15.06-.9-.05-1.34a15.77,15.77,0,0,0-.74-1.84c1.56.72,2.81,1.21,4.06,0l-3-3.3a21,21,0,0,0,2.21-1.28c.39-.3.86-.82.85-1.23a2,2,0,0,0-.84-1.33c-.73-.46-1.33,0-1.86.6a5.84,5.84,0,0,1-3,2.1c.2-.93.7-1.88.41-2.28-.41-.59-1.38-.78-2.23-1.2l-.8-2.42c-.12,1.45-.19,2.34-.27,3.25-1.58-.35-1.89-2.3-3.91-2.39l3.42,5c-2.4-.28-4.12-1.77-6.41-.74l4.91,2.47c-1.52,1.17.23,3.06-1.83,4.05l2.2,1c-.16.65-.32,1.29-.58,2.37l5.25-3.62c0,.93.2,1.6,0,1.8-2.05,1.81-3.7,4.1-6.34,5.48-.92-2.22-.49-4.75-1.79-6.71l-.52.09c.15,1.94.3,3.89.45,5.8a8.91,8.91,0,0,0-1.95.3c-.12,1.85-1.39,1.27-2.56,1.43.91-1.09,1.16-2,.05-3l-4.47,1.78c.3-2,3.16-1.64,3.21-3.7-1.78-1.59-3,.69-4.67.6-1.15-1-.9-3.07-2.45-4.19-.82,1.84.64,3.29.3,4.66-.59,1.46-2.73.81-3,2.6H471c.59,2.39-3,1.88-2.6,4.23l2.46-.53c.14,7.42,3.13,13.75,6.63,20.1-1.68.08-2.26-1-2.91-1.83-2.31-2.79-4.48-5.7-6.75-8.52A31.63,31.63,0,0,1,462,600.09a10.63,10.63,0,0,1-.78-2.63c0-1.55-1.54-3-.44-4.58,2.17.06,4,2.36,6.57,1-.46-1.08-.83-1.89-2.08-2.17a27.79,27.79,0,0,1-4.47-1.54,11.44,11.44,0,0,1-2-1.41c1.15-.89,2-1.55,2.86-2.18.57-.42,1.22-.73,1.74-1.2,1.49-1.31,1.43-1.7-.26-2.93l-4.52,3.09c.09-1.94.16-3.54.24-5.3a4.93,4.93,0,0,0-1.22,3.42c-.06,1.44-.17,3-1.6,4.15-.9-1.61-1.68-3.09-2.55-4.5s-.85-3.07-2.33-4c.23,3.07,2.16,5.55,2.8,8.54-1.48.26-3.27-.86-4.33,1.16,1.25.86,3-.6,3.92,1.15-1.21,1.56-3.43,2-4.63,4,3,.54,4.27-2.13,6.39-2.87a2.48,2.48,0,0,1,.88,2.65c-.25,2-.54,3.93-.71,5.91-.07.79-.38,2,1,2,1.15.08,1.06-.92,1.16-1.7.08-.58.19-1.15.3-1.78a2.93,2.93,0,0,1,1.74,2.35,35.4,35.4,0,0,0,2,5.78A39,39,0,0,0,469,616.93c1.38,1.37,2.47,3,3.79,4.47a16.06,16.06,0,0,0,6.11,4.41c.73.28,1.25,1.38,1.6,2.21a1.85,1.85,0,0,1-.37,1.64c-3.05,2.89-6.05,5.84-9.3,8.49-4.05,3.3-8.29,6.38-12.52,9.44-3.15,2.27-6.4,4.41-9.67,6.5-1.59,1-3.44,1.61-5,2.67A43,43,0,0,1,433,661.67a128.48,128.48,0,0,1-12.83,3.17,23.79,23.79,0,0,1-4.92.84c-4.45.08-8.91-.06-13.37-.07-4.66,0-9.31,0-14,.08a7.73,7.73,0,0,0-.92.23,9,9,0,0,1-2.28.25c-1.57-.18-3.12-.6-4.69-.79a82.8,82.8,0,0,1-11.18-1.87c-2.5-.67-5.06-1-7.5-2-2.27-1-4.82-1.38-7.23-2.07s-4.63-1.33-6.92-2.07c-2.64-.85-5.24-1.78-7.86-2.67l-.92-.33c.69-.65,1.07-.91,1.36-.83,2.06.59,4.17.18,6.25.35,3,.24,5.94-1.06,9-.32.2.05.44-.12.66-.18a21.67,21.67,0,0,1,2.7-.66c2-.26,4.09-.31,6.11-.62,2.94-.46,5.85-1.23,8.8-1.59a61.31,61.31,0,0,0,12.35-2.69,107.22,107.22,0,0,1,10.61-3.25c1.77-.41,3.05-1.52,4.64-2.13a23.56,23.56,0,0,0,7.66-4.18,3.23,3.23,0,0,1,1-.63c4.34-1.7,8.51-3.93,13.31-4.28,1.31-.1,2.6-.45,4.13-.73-.18-.76-.35-1.49-.51-2.15-3-.8-5.95,0-8.73-1-1,1-1.93.12-2.88-.07-1.29-.25-2.57-.56-3.86-.82a47.57,47.57,0,0,0-10.59-.75c-3.38.08-6.77.17-10.14.4a70.73,70.73,0,0,0-7.25.91,62.23,62.23,0,0,0-6.91,1.56c-2.89.85-5.71,1.93-8.59,2.86-2,.64-4.05,1.11-6,1.8-3.75,1.29-7.29,3.16-11.16,4.13a10.84,10.84,0,0,0-1.68.82,57.88,57.88,0,0,1-6.78,2.84,19.84,19.84,0,0,0-5.28,2.11,11.54,11.54,0,0,1-1.46.81c-3.58,1.64-7.19,2.83-11.1,1-1.14-.53-2.37-.85-3.53-1.32a74.47,74.47,0,0,1-12-6.08,53.22,53.22,0,0,0-7.35-4.36,57.54,57.54,0,0,1-10.78-6.41c-3-2.17-5.72-4.77-8.68-7a32.16,32.16,0,0,0-11.1-5.8,21.29,21.29,0,0,0-3.85-.34c-.06.17-.12.33-.17.49-2.58-2.21-5.19-4.37-7.71-6.65-3.28-3-6.51-6-9.73-9.06-1.2-1.14-2.14-2.58-4.07-2.61-.4,0-.82-.47-1.18-.77L238,592.27c-1.76-1.47-3.6-2.84-5.28-4.38-2.39-2.19-4.65-4.52-7-6.76-4.92-4.7-9.9-9.35-14.78-14.11a25.9,25.9,0,0,1-2.62-3.59l1-.8c1.73-1.33,3.23-3,3.48-5.13a22.39,22.39,0,0,1,1.41-4.94,4.21,4.21,0,0,1,4.19-3.13,8.6,8.6,0,0,0,7.78-4.75,49.48,49.48,0,0,0,2.5-4.78,14.29,14.29,0,0,0,.71-8.82,15.21,15.21,0,0,0-6.12-8.41c-1.82-1.3-3.59-2.66-5.6-4.16a17.1,17.1,0,0,1,2.46-1c3.51-.89,6-3.29,8.6-5.58a2.67,2.67,0,0,0,.51-1.07,11.3,11.3,0,0,0-.35-8.15,37.8,37.8,0,0,0-3.11-6.6c-.71-1.16-2.05-1.43-2.57-2.65a3.92,3.92,0,0,0-1.25-1.25c-2.79-2.17-6-3.79-8.3-6.62a24.75,24.75,0,0,1-3.83-6.54c-1.33-3.45-2.48-7-5.16-9.82a33.72,33.72,0,0,0-8.41-6.39,17.65,17.65,0,0,0-9-2.26,32.41,32.41,0,0,0-9,1.37c-.88.28-1.6,1.06-2.48,1.38a6.48,6.48,0,0,0-4.44,5.58,15.53,15.53,0,0,1-.57,2.33,13.25,13.25,0,0,0,.44,8.89c.38,1,.63,2,1.09,3.55l-7.89-3.9c-.86-1.82-1.66-3.35-2.3-4.94-1.88-4.61-5.39-8-8.71-11.45-.87-.91-1.78-1.78-2.7-2.64-1.08-1-2.13-2.09-3.29-3-1.54-1.22-3.18-2.32-4.76-3.48-.76-.55-1.45-1.19-2.25-1.66s-2-.89-2.91-1.48c-1.46-.94-2.74-2.15-4.65-2.14-.51,0-1-.43-1.53-.66a75.85,75.85,0,0,0-7.1-3.14c-3.4-1.11-6.91-1.88-10.38-2.76-.91-.23-1.86-.26-2.78-.45-3-.61-6-1.37-9-1.83a6.27,6.27,0,0,1-3.89-2,52.28,52.28,0,0,1-3.41-4.27c-.47-.65-.9-1.19-1.72-.88s-.76,1.08-.53,1.82a59.29,59.29,0,0,0,2.12,6.78,112.65,112.65,0,0,0,5.26,10.62,61.66,61.66,0,0,0,6.46,9c2.09,2.5,4.41,4.72,6.65,7A33.4,33.4,0,0,0,121,474a22.78,22.78,0,0,1,3.1,1.63,27.82,27.82,0,0,0,10.67,4.82c.62.15,1.25.25,1.86.44a28.8,28.8,0,0,0,12.65,1.53,9.69,9.69,0,0,1,1.63.15c-3.77,2.08-5.27,5.1-6,8.59-.88,4.12-2,8.19-3,12.27-.75,2.91-2.87,4-5.24,4.5-1.69.35-3.32.85-5,1.28-3.54.94-5.85,2.8-5.31,6.88,0,.14-.11.3-.13.46a7.51,7.51,0,0,0,3.8,7.49c3,1.9,6.27,1.64,9.46,1.48A63.63,63.63,0,0,0,152.5,523c4.08-1.1,8.23-1.95,12.39-2.67,3.57-.61,7.14-1.35,10.84-.93a8.91,8.91,0,0,1,4.46,1.77,11.36,11.36,0,0,1-1.49,1c-3,1.26-6,2.57-9,3.7-5.9,2.17-12.12,3.1-18.21,4.51a17.72,17.72,0,0,0-7.7,4,4.73,4.73,0,0,0-1.64,4.49,16.21,16.21,0,0,0,.63,3c1,2.91,2,4.48,4.84,4.38,1.09,0,2.2.23,3.3.27a9.26,9.26,0,0,1,7.76,4.42c2.08,3.18,4.06,6.42,6.08,9.63,1.41,2.24,2.82,4.63,5.43,5.52a17.79,17.79,0,0,0,6.55,1.06c5.13-.3,9.43-2.4,12.05-7.11.53-.94.88-2,1.32-3,.34-.75.7-1.49,1.24-2.65.82,1.53,1.39,2.61,1.7,3.2a14.85,14.85,0,0,1-1.78,2.43c-2.82,2.52-3.84,6.14-5.74,9.22-1,1.66-2.16,3.36-1.85,5.51,0,.14-.1.3-.17.45a16,16,0,0,0-1.58,6.56c0,1.33-.16,2.66-.28,4s-.29,2.66-.42,4A32.05,32.05,0,0,0,181,593c0,1.26.13,2.52.23,3.78.23,3,.46,6.06.72,9.09,0,.29.28.56.39.85a9.91,9.91,0,0,1,.62,2c.21,2,.42,4.07.45,6.11s-.45,4-.18,5.91a9.79,9.79,0,0,1-1,5.47,20.31,20.31,0,0,0-1.25,4.83,1.75,1.75,0,0,0,.9,1.42c.41.15,1.13-.25,1.56-.6a2.7,2.7,0,0,0,.64-1.26c.56-1.72,1-3.46,1.64-5.16a13.43,13.43,0,0,1,1.49-3.21c2.81-4.06,5.79-8,8.57-12.09a63.23,63.23,0,0,0,5.06-8.32,90.19,90.19,0,0,0,3.93-10.39,42.43,42.43,0,0,0,1.54-6.36,29.09,29.09,0,0,0,.45-7.84,8.55,8.55,0,0,1-.05-1.43,18.62,18.62,0,0,0-1.82-10.31,5.24,5.24,0,0,1-.27-.69l1.44-.94c1.06,1.26,2,2.4,3,3.55a45.81,45.81,0,0,0,4.39,5.29c2.75,2.45,5.1,5.29,8.05,7.57,2.73,2.1,5,4.8,7.46,7.24.55.55,1,1.18,1.61,1.68,2.55,2.21,5.12,4.39,7.7,6.57s5,4.32,7.62,6.36a4.35,4.35,0,0,1,1.77,2.67,11.52,11.52,0,0,0,1,3.2c1.43,2.62,1.17,5.49,1.39,8.28.12,1.46-.17,3-.1,4.43.15,3.22.43,6.44.64,9.67.11,1.73.11,3.48.33,5.21a42.84,42.84,0,0,0,1,4.87c.57,2.39,1.11,4.79,1.86,7.11,1,3.12,2.21,6.18,3.35,9.26.22.59.53,1.15.81,1.73.87,1.78,2.1,3.36,3.07,5a43.68,43.68,0,0,0,6.5,8c3,3.18,6.84,5.29,10.66,7.27s8.07,3.56,12.11,5.31l.43.2c3.33,1.38,6.7,2.65,10,4.16a22.41,22.41,0,0,1,4.58,3,56.08,56.08,0,0,1,5,4.7,1.92,1.92,0,0,0,2.88.26,7.26,7.26,0,0,0-.41-2c-.75-1.48-1.64-2.89-2.48-4.31-1.41-2.38-2.82-4.75-4.25-7.11-.24-.4-.63-.7-.9-1.08a33.86,33.86,0,0,1-2-3c-1.88-3.45-3.72-6.93-5.54-10.41a36,36,0,0,1-2.61-5.33c-1.5-4.59-4.69-8.47-5.53-13.33a.84.84,0,0,0-.1-.22c-1.06-2-2.23-4-3.16-6.07a110.82,110.82,0,0,0-7.95-15.34,25.08,25.08,0,0,0-5.77-6.81,70.45,70.45,0,0,1-5.31-4.9,7,7,0,0,1,2,.22c3.36,1.8,6.89,3.37,10,5.58,3.76,2.69,7.06,6,10.71,8.89a40.86,40.86,0,0,0,7.09,4.58,67.12,67.12,0,0,1,10.53,6.33,4.12,4.12,0,0,1,1,1.25c1.86,3.18,3.69,6.36,5.76,9.42,2.84,4.18,5.48,8.5,8.22,12.76,1.2,1.86,2.33,3.78,3.67,5.53,1.65,2.14,3.5,4.12,5.25,6.18a24.2,24.2,0,0,0,2.81,3.22,31.25,31.25,0,0,0,7.25,4.32c2.6,1.11,5.19,2.29,7.87,3.17,3.61,1.19,6.82,3.61,10.82,3.62a2,2,0,0,1,.67.26c1.84.73,3.71,1.42,5.53,2.19,1.14.48,2,.39,2.59-1-1.26-1.43-2.53-2.9-3.83-4.34-2-2.22-4.27-4.18-5.92-6.73-.89-1.37-2.26-2.42-3.29-3.71-2.6-3.27-4.94-6.76-7.74-9.85s-6.08-5.8-9.11-8.71a29.07,29.07,0,0,1-1.93-2.21c.64.06,1,.51,1.45.51,2.69,0,5,1.38,7.49,2a3.79,3.79,0,0,1,2.86,1.93,1.78,1.78,0,0,0,1.09.86c3.08.71,5.41,2.8,7.88,4.5a67.73,67.73,0,0,1,6.84,6c2,1.8,4.26,3.41,5.85,5.52,3.39,4.49,8.1,7.2,12.66,10.13a17.14,17.14,0,0,0,3.94,1.44c2.25.75,4.49,1.49,6.76,2.18,1,.29,2,.39,3,.63,2.16.52,4.29,1.2,6.47,1.56,2.81.46,5.68.51,8.47,1,3.72.69,7.39,1.56,11.21,1.56a22.57,22.57,0,0,1,5.45.56c3.28.84,6.5,2,9.74,3a1.29,1.29,0,0,0,.7.11c.55-.23,1.25-.42,1.54-.86s-.07-1.09-.38-1.46a4.2,4.2,0,0,0-1.55-1,27.61,27.61,0,0,1-7-4.4c-2.74-2.33-5.68-4.42-8.38-6.8-2.07-1.82-4.59-3-6.41-5.23a17.81,17.81,0,0,0-3.77-2.79c-1.36-1-2.79-1.83-4.1-2.86a28.25,28.25,0,0,0-9.29-4.64c-1.61-.5-3.18-1.17-5.19-1.92.76-.42,1-.68,1.27-.69a37.77,37.77,0,0,1,4.51-.16,86.65,86.65,0,0,1,13.2,1.68,108.47,108.47,0,0,0,11,1.35,34.22,34.22,0,0,0,4.93.45,70.71,70.71,0,0,1,11.9.81,13.44,13.44,0,0,0,2.11.14c1.24,0,2.49-.18,3.74-.18,1.69,0,3.38.22,5.07.18a44.67,44.67,0,0,1,10.83.62,44.14,44.14,0,0,1,4.57,1.12,6.21,6.21,0,0,1,2.05,1.47c1,.9,1.76,2,2.74,2.86,2.56,2.27,5.21,4.45,7.79,6.69,2.81,2.44,6.16,4.05,9.39,5.76a46.24,46.24,0,0,0,9.46,3.43,20.31,20.31,0,0,0,6.27.58c1.42-.07,2.8-.87,4.21-1.3,2.49-.77,5-1.67,7.5-2.19s5.32-.67,8.07-1c.67-1.72.65-1.87-1-2.47-1.44-.53-2.94-.89-4.39-1.38a18.1,18.1,0,0,0-3.27-1.24,49.44,49.44,0,0,1-11.5-3.42,45.74,45.74,0,0,0-4.46-1.92c-5-1.37-9.42-4.09-14.46-5.27-3.21-.75-6.31-1.93-9.48-2.84-.54-.15-1.28.28-1.53-.81,1.07-.29,2.12-.62,3.2-.86,4.62-1.06,9.38-1.72,13.86-3.23,5.84-2,11.79-3.54,17.71-5.24a3.07,3.07,0,0,1,2.94.41,3.89,3.89,0,0,0,2.18.58,20.33,20.33,0,0,1,8.28,1.29q4.33,1.92,8.66,3.89c.5.23.93.61,1.41.89a24,24,0,0,0,4.73,2.49,44.07,44.07,0,0,1,6.34,2.67,35.07,35.07,0,0,0,8.58,3.24,9.49,9.49,0,0,0,2.36.35c2.44-.05,4.89-.15,7.33-.32,4.5-.31,9-.83,12.9-3.32,2.6-1.64,5.5-2.21,8.45-2.75,2.77-.5,5.53-1.13,8.18-1.68.25-1.16.14-1.87-.89-2.13s-2.25-.61-3.37-.9c-3.9-1-7.82-2-11.7-3.11-5.63-1.61-11.18-3.53-16.86-4.94-4.82-1.19-9.58-2.9-14.65-2.86a48,48,0,0,1-5.22.09,22.21,22.21,0,0,0-5.82.27l-11.15,1.74-4.22.64-.14-.49a33.76,33.76,0,0,1,3.64-2.19c3.54-1.58,7.08-3.19,10.73-4.49a121.88,121.88,0,0,1,11.8-3.51c5.14-1.25,10.34-2.22,15.52-3.29.53-.11,1.08-.1,1.61-.17s1.24,0,1.59-.28c1.87-1.6,4.27-2.12,6.34-3.28a13.12,13.12,0,0,1,7.48-1.61c4.53.3,8.62,2,12.79,3.53a52.49,52.49,0,0,1,5.21,2.3,20,20,0,0,1,2.25,1.46,36,36,0,0,0-2.87,2.69,10,10,0,0,0-1.79,2.75c-.55,1.42.27,2.37,1.78,2.24a5,5,0,0,0,1.81-.53c2.14-1.05,3-3.08,3.75-5.15.46-1.32.68-1.58,2-1.17,1.13.36,2.19,1,3.34,1.26,3,.66,6,1.17,9.35,1.82l-1.24.88a27.62,27.62,0,0,0-3.46,2.45c-2.19,2.07-2.61,4.28-1.48,6.45,4.88.67,8.56-4.74,7.65-9.6l9.9.67c.33,1.09.6,2.09.94,3.06a4.2,4.2,0,0,0,4.52,3c1.27-.21,1.67-.66,1.45-1.91s-.58-2.59-.9-4l13.49-.89a11.33,11.33,0,0,0,.8,2.19,53.11,53.11,0,0,0,6.32,7.64,5.28,5.28,0,0,0,1.35,1c1.6.85,3.64.5,4.2-.78a4.07,4.07,0,0,0,0-3.89,18,18,0,0,0-5.37-6.2,9.79,9.79,0,0,1-1.23-1.26l13.9-4a10.81,10.81,0,0,0,1,1.92c1,1.26,2,2.6,3.87,2.34a4.89,4.89,0,0,0,3.78-3,1.94,1.94,0,0,0-.42-2.58c-.65-.55-1.24-1.16-1.93-1.81a33.12,33.12,0,0,0,2.94-1.68c1.76-1.29,3.46-2.66,5.15-4a2.79,2.79,0,0,1,3.86,0,22.24,22.24,0,0,0,12.12,4.13,8.64,8.64,0,0,0,3.49-.47,3.48,3.48,0,0,0,2.24-2.21c1-2.58.16-4.33-1.74-5.88-1.08-.88-2.23-1.67-3.56-2.66,1.33-.49,2.44-.84,3.51-1.3a13.41,13.41,0,0,0,2.73-1.44c1.36-1,1.26-2.4-.19-3.25a4.22,4.22,0,0,0-3.83-.67,23.74,23.74,0,0,1-4,.86,8.41,8.41,0,0,1-1.51,0c.6-1.27,1.12-2.31,1.58-3.38a2.76,2.76,0,0,0-.71-3.46c-1-.8-2.07-.54-3.29-.29-2.6.53-4.52,2.16-6.34,3.79a8.51,8.51,0,0,0-3,5,18.69,18.69,0,0,1-2,6.56c-1.39,2.31-3.52,4.2-5.36,6.24-.17.19-.57.17-1,.29-.33-2.28-.7-4.48-2.72-5.82-3.59.4-4.87,1.36-5.19,4.11a10,10,0,0,0,.15,3.5c.31,1.24-.19,1.74-1.16,2.24-4,2.07-8.3,2.93-12.84,4.25.61-3.88,1.38-7.63-1.86-10.64a5.84,5.84,0,0,1-.86.31,8,8,0,0,0-5.33,4.4c-.82,1.56-.13,3.37.51,5s.12,2.21-1.57,2.41c-1.94.24-3.9.45-5.85.51a8.29,8.29,0,0,1-2.32-.64c.15-.49.15-.69.24-.79a2.74,2.74,0,0,0,.27-3.7,4.23,4.23,0,0,0-4-1.75,2.92,2.92,0,0,0-2.4,2.64c-.24,1.21-.55,2.41-.84,3.66l-4.79.26c1.4-2.9,0-5.09-2.93-5-1.68.07-3.52.41-4.5,1.87-1.29,1.91-3.17,1.92-4.8,1.53-4.32-1.06-8.59-2.36-12.79-3.82-3.48-1.2-6.81-2.84-10.26-4.14-1.76-.66-3.64-1-5.83-1.55a6.5,6.5,0,0,1,1.5-.85c3.42-.69,6.83-1.4,10.27-1.92a3.73,3.73,0,0,1,2.66.69,12.74,12.74,0,0,0,4.66,2.18c3,.93,3.23.75,4-2,1.64.58,3.26,1.23,4.93,1.7a5,5,0,0,0,2.32,0c1.21-.25,1.55-1,.94-2.09a21.36,21.36,0,0,0-1.65-2.14,3.88,3.88,0,0,1,4.11.66c1.92,1.49,4.19,1.83,6.38,2.41,1.62.42,3.13.13,3.87-1.71,2.51,1.64,4.74,3.58,8.06,2.7l.7-2.34a4.27,4.27,0,0,1,1.49.14c2.26,1.26,4.68.68,7,.72a2.42,2.42,0,0,0,2.3-1.39c-.23-2.07-2.21-2.77-3.42-4.32a20.77,20.77,0,0,1,2.91-.81,1.65,1.65,0,0,1,1.36.57c.88,1.78,2.6,2.5,4.12,3.43a5.55,5.55,0,0,0,5.67.56c1.47-.74,2.7-1.71,2.81-3.52s-1.57-1.92-2.77-2.37c-1-.36-2-.61-3.14-1,1.93-1.58,3.66-2,5.64-.83a12.85,12.85,0,0,0,2.64,1.12,28.09,28.09,0,0,0,4.28,1.12c1.68.23,2.66-.75,2.73-2.47,0-.83,0-1.67,0-2.61a11,11,0,0,0,2.57-.93,10.89,10.89,0,0,0,2.35-2.25,1.38,1.38,0,0,0,0-1.31c-.72-.92-1.34-2-2.79-2s-3.13,0-4.88,0c-.09-.56-.19-1.17-.3-1.78-.33-1.82-1.39-2.7-3.16-2.28a7.36,7.36,0,0,0-3.38,1.59c-.85.82-1.2,2.17-1.78,3.3-.21-.11-.62-.35-1-.53-2.19-.94-2.36-.9-3.78,1.23-1.09,1.65-2.2,3.3-3.15,5a2.22,2.22,0,0,1-2.49,1.39c.14-.36.2-.58.3-.77.75-1.45.73-2.77-.09-3.44a2.2,2.2,0,0,0-3.06.31,53.52,53.52,0,0,0-4,4.41,22,22,0,0,1-1.77,2.17c-1.59,1.38-4.63,1.86-7.28,1.28l1.17-2.68c-1.43-1.62-1.52-1.73-2.64-1.59-2.61.34-4.85,1.21-6,3.92-.89,2.06-1.11,2.05-3.73,1.4.68-.72,1.32-1.29,1.84-2a2.11,2.11,0,0,0,.27-2.65,1.76,1.76,0,0,0-2.33-.62c-2.21.85-4.61,1.4-5.87,3.79a6.13,6.13,0,0,1-1.66,1.71,3.05,3.05,0,0,1-1.15.3v-3c-4.12-1.34-5.56-.71-8.62,3.6l-13.36,2.36a1.13,1.13,0,0,1,.48-1c1.6-1,3.2-2,4.81-3s3.07-2,4.68-2.83c2.41-1.3,4.93-2.41,7.34-3.72s4.62-2.75,7-4.07c1.91-1.09,3.92-2,5.8-3.14,2.17-1.3,4.25-2.74,6.36-4.14a29,29,0,0,0,4.65-3.25,15.1,15.1,0,0,1,3.65-2.55,8.31,8.31,0,0,0,1.39-.87c3-2.57,6-5.14,9-7.77,2.57-2.28,5.12-4.6,7.59-7,2.73-2.64,5.37-5.38,8.06-8.07,1.73-1.73,3.41-3.51,5.23-5.14a65.8,65.8,0,0,0,7.33-7.32c1.17-1.42,2.06-3.36,4.09-3.87a2.72,2.72,0,0,0,2-2.41c.18-.74.29-1.5.5-2.56,1.31.52,2.35.86,3.31,1.34,2.56,1.3,5.1,2.58,8.1,2.48,2.3-.07,4.61-.14,6.9,0a10.29,10.29,0,0,0,8-2.81c.87-.81,2-1.42,2.25-2.87a7.21,7.21,0,0,0-2.87-6.78c-1.14-.69-2.23-1.47-3.65-2.4,1.58-.42,2.88-.67,4.11-1.11a17.83,17.83,0,0,0,6.38-3.41c1-.94,2.65-1.49,2.85-3.06a10.5,10.5,0,0,0-2-8.06,2.51,2.51,0,0,0-2.19-1.14c-1.81,0-3.63-.34-5.44-.39a23.45,23.45,0,0,0-5.93.15c-2.89.67-5.66,1.87-8.5,2.79a7.34,7.34,0,0,1-2,0,6.22,6.22,0,0,1,2.46-3.16,44.87,44.87,0,0,1,5.25-3.2c3.86-1.85,7.82-3.47,11.7-5.27a6.88,6.88,0,0,1,3.51-.67c.7,1,1.07,2,1.78,2.44a4.16,4.16,0,0,0,5.16-1.08,14.8,14.8,0,0,0,2.12-3.93,2.25,2.25,0,0,0-.71-2.75c-.89-.56-2.08-1-2.91-.17-1.62,1.63-3.82,1.27-5.82,2a22.19,22.19,0,0,1,3.06-5.79c1.86-2.19,2.34-4.94,3.64-7.35s1.88-4.85,2.94-7.23c.64-1.42,2.16-2.68,2.25-4.08.22-3.49,2.76-6,3.34-9.28a20.14,20.14,0,0,1,1.5-3.64,21,21,0,0,0,.76,2.56,14.17,14.17,0,0,0,2,3.85c4,4.25,9.27,4.79,14.63,4a15.88,15.88,0,0,0,8.66-4.68,13.3,13.3,0,0,0,3.78-8c.44-3.35-1.78-5.91-4.34-7.6a23.63,23.63,0,0,0-7.66-3.15,9.48,9.48,0,0,1-4.65-2.48c-1.16-1.08-2.4-2.08-3.65-3s-2.5-1.67-3.64-2.62a19.12,19.12,0,0,1-4.08-5l2.11-3.43c1.73,1.56,3.48,3,5.12,4.62,2.42,2.33,4.63,4.81,7.74,6.39,3.55,1.8,6.93,3.66,11.15,3.47a5.62,5.62,0,0,0,3.68-1.24,15.72,15.72,0,0,0,4.5-6.24,12.78,12.78,0,0,0,1-4.8,19.83,19.83,0,0,0-1.72-7.38,7.82,7.82,0,0,0-4.93-4.18,13.53,13.53,0,0,0-9.6.77c-2.77,1.34-5.84,1.64-8.51,3.11a2,2,0,0,1-1.17,0c-.8-.16-1.59-.39-2.55-.62,2.21-2.43,5-3.69,7.76-5.07a5.72,5.72,0,0,1,1.56-.6,11.7,11.7,0,0,0,7.21-4.19,15.59,15.59,0,0,0,2.32-4.54,14.08,14.08,0,0,0,0-10.89c-1.34-3.24-2.53-6.7-5.9-8.46a57,57,0,0,0-6.18-2.42c-.36-.14-.75-.22-1.66-.49,1.36-.43,2.31-.49,2.92-1,3.6-2.85,8-4.68,10.92-8.36,1.29-1.61,2.61-3.2,3.78-4.89s1.35-3.72,1.93-5.56A49.18,49.18,0,0,0,761,379.3c.3-3.15.11-6.35.24-9.53a61.6,61.6,0,0,1,.3-7,43.27,43.27,0,0,1,3.35-10.61c1.74-3.95,3.8-7.75,5.72-11.62.22-.42.46-.84.65-1.27C771.89,337.85,771.82,337.67,770.27,336.67Zm-31.45-126a15.08,15.08,0,0,1-7,.88c-3.36-.44-6-2.32-8.34-4.23-2.17-1.75-4.13-4.19-3.66-7.64l2.53-1.07a7.45,7.45,0,0,0,3.48,3.57c.77.36,1.52.77,2.3,1.11.43.18,1,.13,1.36.38,2.5,1.75,5.39,1.64,8.21,1.81,1.62.09,2.11.34,2.39,1.69C740.44,208.78,740,210.24,738.82,210.64Zm-10.88-17.88c3.26-2.91,7.39-2.27,11.2-2.93a9.32,9.32,0,0,1-4.36,1.59,25.27,25.27,0,0,0-4.33,1.11A8.74,8.74,0,0,1,727.94,192.76Zm9.39,10c-4.06-.6-8.36-.57-11.15-4.44C730.54,198.22,734.37,199.4,737.33,202.74Zm-13.27-11.58c-.17.1-.52-.14-1.18-.36,2.06-2,3.84-3.8,5.72-5.51s3.79-3.25,6.08-5.2c.2.87.43,1.28.31,1.44A34.13,34.13,0,0,1,724.06,191.16Zm-1.16-7.11a5.59,5.59,0,0,1-.54.91c-.07-.49-.17-.73-.11-.92a4.75,4.75,0,0,1,.59-.95A4.17,4.17,0,0,1,722.9,184.05Zm-.25,11.33,0,.66H721.3a3.69,3.69,0,0,1,.12-.77A7.3,7.3,0,0,1,722.65,195.38Zm33.76-4.75a13.11,13.11,0,0,1,3.4,2.81c.92,1,.69,2.32-.4,3.56-3.07,3.5-6.75,5.8-11.59,5.91a31.35,31.35,0,0,0-4.4.57,2.13,2.13,0,0,1-2.29-.84,19,19,0,0,0-6.86-5.45c-.7-.32-1.46-.49-2.17-.8a13.13,13.13,0,0,1-1.44-.87c2-.7,3.78-1.28,5.52-1.92,3.16-1.17,6.51-1.8,9.44-3.63a5.2,5.2,0,0,1,3.18-.59C751.35,189.72,754.07,189.32,756.41,190.63ZM740,178c.85-1.83,2.67-2.6,4.39-3.41a20.46,20.46,0,0,0,2.49-1.33,13.76,13.76,0,0,1,7.42-2.1c1.89,0,4.57,2.09,4.9,3.89a3.44,3.44,0,0,1-.57,2.18,7.94,7.94,0,0,1-1.86,2.1c-2.42,1.88-4.94,3.64-7.34,5.54s-5,2.14-7.77,2a37.28,37.28,0,0,0-8.61,1c.21-.53.25-.89.45-1.06A25.51,25.51,0,0,0,740,178Zm-12.21-1.63a1.45,1.45,0,0,1,.39-.58c2-1.7,3.68-3.87,6.36-4.73a4.72,4.72,0,0,1,3.67,0c.44,2.38.14,4.31-2.36,5.51a30.38,30.38,0,0,0-4.8,3c-1.51,1.12-2.87,2.46-4.32,3.67a9.82,9.82,0,0,1-1.49.82C726.21,181.19,727,178.76,727.82,176.33Zm-2-12.93c1.6,4,1.72,7.72-.36,11.17s-4.32,6.39-6.68,9.83C716.76,175.93,719.94,169.41,725.83,163.4Zm-9.08,22.69a11.6,11.6,0,0,1,0,5.94C715.67,189.92,715.66,189,716.75,186.09Zm-3.13,9.26a4.34,4.34,0,0,1-1.2,0c-6.58-2.17-11.17-9.3-11.27-14.77,0-1.58-.18-3.16-.17-4.74,0-2.93,2.09-4.59,4.19-5.92a3.64,3.64,0,0,1,4.41.62,20.2,20.2,0,0,1,5.09,6.79,3.46,3.46,0,0,1,.17,2.49,18.58,18.58,0,0,0-.74,4.42C714,187.84,713,191.43,713.62,195.35ZM482.33,57.81a15.91,15.91,0,0,1-2.86.93c-4,.56-8,1.13-12,1.46-2.94.25-5.58-1.07-8.12-2.35-.76-.38-1.23-1.35-1.88-2.11a6.82,6.82,0,0,1,5.38-1.91,69.52,69.52,0,0,1,9.66.69,16,16,0,0,1,5.85,1.61,9.37,9.37,0,0,0,2.31.47c.58.14,1.13.37,1.7.55ZM488.69,22c2.77,2.93,3.08,6.74,4.09,10.21a14,14,0,0,1-.54,10.21C486.12,35.52,484.28,30.16,488.69,22Zm-15.34,5.7a3.14,3.14,0,0,1,1-3.82A13.7,13.7,0,0,1,480.19,29c1.44,2,3.36,3.83,3.84,6.46a25.92,25.92,0,0,0,.7,3c.74,2.32,1.49,4.65,2.37,6.92a12.81,12.81,0,0,0,1.53,2.33l-.42.53A27.48,27.48,0,0,1,484.4,46c-2.81-2.33-5.47-4.73-7.26-8.11S474.61,31.1,473.35,27.74Zm2.22,20.9a37.08,37.08,0,0,1-9.31-7.34,7.58,7.58,0,0,1-2.09-5c1.5.66,3,1.2,4.35,1.95q3.86,2.12,7.57,4.45a34,34,0,0,1,4.14,3.12c3.29,2.83,6.52,5.73,9.93,8.74a2.69,2.69,0,0,1-2.53-.22C483.58,52.48,479.46,50.77,475.57,48.64Zm10.36,10.6c2.84-1.63,5.51-2.45,8.41-.86C492.6,60.17,488.88,60.62,485.93,59.24Zm22-5.59a9.42,9.42,0,0,1-5.77,3.1c-1.68.17-2.61-1.11-3.69-2.12C501.14,52.4,504,52.5,507.9,53.65Zm-12.27-.75a28.49,28.49,0,0,1-1-3.46,10.66,10.66,0,0,1,1.21-7.7c2.1-3.33,5.26-4.52,9.41-3.64C505.64,45.36,500.49,48.84,495.63,52.9ZM283.18,102.62c-3.8-.67-7.57-1.6-11.36-2.36-3.47-.7-6.95-1.38-10.44-1.93a86.05,86.05,0,0,0-10.09-1.24,73.74,73.74,0,0,0-10.17.53c-3.14.33-6.24,1-9.37,1.46-.19,0-.41-.11-.83-.23A8.18,8.18,0,0,1,235.76,96c1.82-.48,3.57-1.06,5.35-1.65,3.14-1.05,6.21-2.16,9.72-2.2a50.94,50.94,0,0,1,14.4,2.23,9.56,9.56,0,0,1,2.42,1c3.63,2.23,7.68,3.28,11.73,4.36,2.73.73,5.47,1.43,8.2,2.17.1,0,.15.24.42.72A28.45,28.45,0,0,1,283.18,102.62Zm2.65-3.53c-2.56-.85-5.12-1.74-7.66-2.66-2.74-1-5.45-2.07-8.2-3-2.36-.83-4.83-1.39-7.11-2.39a20.63,20.63,0,0,0-5.95-1.4c-1.15-.14-2.41.13-3.48-.21-1.84-.58-3.61.4-5.51-.3,1.74-.82,3.42-2,5.26-2.37,2.73-.49,5.48-1.14,8.38-.52A45.9,45.9,0,0,1,272.51,90c3.2,1.58,6.59,2.78,9.69,4.52a30.74,30.74,0,0,1,6.48,5.29C287.73,99.55,286.76,99.4,285.83,99.09ZM143,308.54c-.87-.92-1.55-1.7-2.3-2.4a7.68,7.68,0,0,1-2.21-4.62,2.26,2.26,0,0,1,.35-1.33c.52-1,1.12-1.89,1.74-2.9,1.32.26,2.2.88,2.31,2.29.21,2.75.42,5.51.6,8.27C143.45,308,143.19,308.21,143,308.54Zm-1.5,44.86a3.26,3.26,0,0,1-2.35-.32c-3.32-1.41-4.34-4.34-4.74-7.6a1.11,1.11,0,0,1,.08-.47c.06-.13.17-.25.46-.69l2.07,2c.61.58,1.23,1.16,1.83,1.76s1.11,1.1,1.64,1.69a3.54,3.54,0,0,1,1,1.3C141.57,351.83,142.47,352.84,141.45,353.4Zm-5.66-20.56c-1.24-1.68-2.36-3.46-2.16-5.62a11.09,11.09,0,0,1,1.18-4,2.62,2.62,0,0,1,2.11-1.21,3.2,3.2,0,0,1,2.13,1.59,22.6,22.6,0,0,1,1,3.84c.59,2.05,1.24,4.08,1.9,6.26C139.4,335.43,137.45,335.11,135.79,332.84Zm-25.48,9.22a4.74,4.74,0,0,1,1.27.71c3.14,3.3,6.58,6.38,9.26,10a64.83,64.83,0,0,1,8.51,14.36c.71,1.81,2,3.38,2.89,5.14,1.63,3.26,3.11,6.6,4.68,9.89.51,1.06,1.11,2.07,1.88,3.5-.64-.23-1-.24-1.1-.41-1-1.18-2-2.39-3-3.59-1.93-2.28-4-4.46-5.74-6.86-1.88-2.56-3.5-5.3-5.18-8-.77-1.24-1.43-2.56-2.11-3.86-3.07-5.82-5.66-11.89-9.29-17.41-.71-1.09-1.5-2.14-2.25-3.21Zm28.18,48.4a43.17,43.17,0,0,1-14.1-11.35c-2.61-3.24-5.75-6.06-7.83-9.72-1.17-2.05-2.31-4.13-3.62-6.1-1.9-2.84-2.39-6.17-3.45-9.3-.68-2-.92-4.14-1.43-6.2-.48-1.9-1.06-3.77-1.59-5.65l.37-.05a37.07,37.07,0,0,1,2.73,3.54c1.66,2.76,3.25,5.57,4.74,8.43s2.87,6,4.39,9c.78,1.53,1.78,2.94,2.62,4.44,1,1.79,1.89,3.66,3,5.41a35.81,35.81,0,0,0,3,4c1.61,1.95,3.52,3.69,4.92,5.77a40.42,40.42,0,0,0,6.18,6.55,2.84,2.84,0,0,1,1,1.35A2.58,2.58,0,0,1,138.49,390.46Zm-2.46,38a70.93,70.93,0,0,1-10.29-8.76c-2.28-2.3-4.83-4.36-7-6.77-2.57-2.86-5.29-5.67-6.59-9.56,4.57,5.75,10.53,10,16,14.9s10.84,9.58,16.44,14.52A31.22,31.22,0,0,1,136,428.43Zm5.4-1.78-8-6.39a2.55,2.55,0,0,1-.69-.66,14,14,0,0,0-3.68-3.83c-2-1.57-4.09-3-5.91-4.73-2.46-2.33-5.37-4.17-7.29-7.12-1.59-2.44-3.59-4.61-5.37-6.93a22.75,22.75,0,0,1-1.39-2.4c14.87,5.59,33.62,28,36.49,35.43C144.06,428.76,142.75,427.7,141.43,426.65Zm14.08-3.84a61.65,61.65,0,0,1,3.75-7.44c1.88-2.88,3.86-5.76,6.87-7.68q2.12-1.33,4.11-2.84a8.9,8.9,0,0,0,1.4-1.53,8.45,8.45,0,0,1,2.1-2,3.54,3.54,0,0,1-.25,1.12c-1.09,1.74-2.2,3.46-3.37,5.14-.57.84-1.39,1.52-1.89,2.4-2,3.45-4.92,6.13-7.5,9.08l-5.36,6.16-.51-.23A14.19,14.19,0,0,1,155.51,422.81Zm.59,6.08c1.78-2.57,3.43-5.27,5.78-7.42a39.81,39.81,0,0,0,6-7c1.64-2.38,3.49-4.62,5.48-7.24a11.7,11.7,0,0,1-2,5.14c-1.12,1.61-2,3.41-3,5.05a46.3,46.3,0,0,1-6.89,8.12c-2.12,2-4.46,4.08-5.72,6.92-.11.24-.49.35-.75.52l-.48-.3A18.71,18.71,0,0,1,156.1,428.89Zm9-55.74a13.23,13.23,0,0,1-2.13,3.37c-2.25,2.72-3.35,6.34-6.62,8.27-.77.46-1.18,1.5-1.89,2.1-1.65,1.41-3.27,2.92-5.52,3.36-1.46.29-2.23-.36-1.73-1.73a16.6,16.6,0,0,1,2.09-3.68c2-2.87,3.9-5.8,6.12-8.48a31.84,31.84,0,0,1,5.47-5.16,24.76,24.76,0,0,0,5.76-5.93,4.81,4.81,0,0,1,1.07-.86l.38.31C167.1,367.54,166.2,370.39,165.09,373.15Zm-16.66,4.05c2.22-2.75,4.27-5.65,6.59-8.3a70.76,70.76,0,0,1,5.32-5.06c1.6-1.49,3.28-2.91,4.8-4.48s3-3.39,4.55-5.08a6.65,6.65,0,0,1,1.09-.73c0,2.07-1.25,3.1-2,4.34-1.68,2.74-3.49,5.41-5.27,8.09a2.8,2.8,0,0,1-1,1c-2.71,1.29-4.63,3.58-6.72,5.58a51.06,51.06,0,0,0-5.65,6.92c-1.41,1.93-2.6,4-3.88,6.08A9.35,9.35,0,0,1,148.43,377.2Zm-3.21-27.8a33.1,33.1,0,0,1,2.78-4.71,16.27,16.27,0,0,1,6.07-5.43c2.53-1.15,3.13-1,5.33,1.22a20.5,20.5,0,0,1-4.93,7.25c-.71.65-1.54,1.17-2.19,1.85-1.75,1.83-4,1.67-6.19,1.62A1.16,1.16,0,0,1,145.22,349.4ZM147,329.71a44.15,44.15,0,0,1,4.55-6.68c1.9-2.08,3.84-4.54,7.84-4-1.12,1.9-2,3.53-3,5.13-.57.92-1.37,1.73-1.84,2.69-1.32,2.74-3.9,4.11-6.15,5.82-.44.34-1.35.05-2.38.05A14.82,14.82,0,0,1,147,329.71Zm2.51-23.33c3.3-5.24,8.23-8.15,14.69-9.36-3.69,7-9.07,11.39-15.69,14.77A6.41,6.41,0,0,1,149.54,306.38Zm1-24.27a11.82,11.82,0,0,1,1.54-12.05C151.51,274,152.81,278.16,150.58,282.11Zm5.87-2c2.81-3.45,6.65-5.55,10.55-7.47,2.29-1.12,3.63-.79,4.91.74a2.14,2.14,0,0,1,.2,2.81c-1.46,2.35-3.83,3.48-6.07,4.82-3.7,2.22-8,2.34-12.28,3.13C154.65,282.84,155.43,281.4,156.45,280.15Zm6.24-32.28a13.84,13.84,0,0,1-.82,1.91,17.22,17.22,0,0,1-1.24-2.3,53.14,53.14,0,0,1-2.81-13,6.71,6.71,0,0,1,.54-3.2c.57-1.23,1.75-1.25,2.75-.32a7.32,7.32,0,0,1,2,4.66A35.51,35.51,0,0,1,162.69,247.87Zm6.93.36c1.52-.47,3.06-.87,4.58-1.35,4-1.25,8-2.52,12.16-3.86a5.62,5.62,0,0,1-.44,4.75,10.61,10.61,0,0,1-3.11,3.5,17.47,17.47,0,0,1-7.14,3.65,18.28,18.28,0,0,1-8.94,0,9,9,0,0,1-1.39-.7C165.91,251.54,166.71,249.15,169.62,248.23Zm7-30.5a17.46,17.46,0,0,1-2.42,9,58.47,58.47,0,0,1-1.72-5.86,36,36,0,0,1-.54-11.3,12.3,12.3,0,0,1,.92-2.91,1.62,1.62,0,0,1,2-.95c.8.1.93.72,1,1.39.23,1.56.62,3.11.72,4.68C176.66,213.76,176.59,215.75,176.58,217.73Zm19.47.77a12.58,12.58,0,0,1-3.44,4.75c-2.1,1.8-4,3.92-6.64,5-2.22.89-4.5,1.84-7.06,1.2C181.53,222.06,187.58,217.63,196.05,218.5Zm-1.47-21a21.53,21.53,0,0,1-1.34,3.09,44,44,0,0,1-3.64-12.91,13.31,13.31,0,0,1,.46-4.24,4.33,4.33,0,0,1,1.2-2,2.11,2.11,0,0,1,3.29.26,5.28,5.28,0,0,1,1.14,3.78A50.09,50.09,0,0,1,194.58,197.54Zm8.59-2.24a15.18,15.18,0,0,1,4.16-.86c3-.22,6.09-.28,9.55-.42a9.46,9.46,0,0,1-5.3,5,27.9,27.9,0,0,1-14.24,2.35A8.7,8.7,0,0,1,203.17,195.3ZM250,138.93a89.21,89.21,0,0,1-11.11,6.73,69.64,69.64,0,0,1-9.12,3.78c-4.66,1.52-9,4.16-14,4.55-1.37.1-2.67.95-4.05,1.27-3.23.76-6.47,1.51-9.74,2.06-2.89.49-5.54,1.71-8.35,2.38-.76.18-1.49.47-2.25.65a55.68,55.68,0,0,0-9.82,3.91A38.64,38.64,0,0,0,171,171.32l-4.16,4-.41-.26c.69-1.29,1.31-2.62,2.08-3.87s1.81-2.57,2.65-3.9c1.64-2.57,4-4.48,6.17-6.5a37.16,37.16,0,0,1,3.47-3.07,84.91,84.91,0,0,1,13.56-8.25,23.68,23.68,0,0,1,3-.86c3.73-1.16,7.46-2.36,11.2-3.49a16.86,16.86,0,0,1,3-.55c3.51-.34,7.05-.52,10.54-1,1.86-.26,3.79.51,5.59-.43,4,.41,7.65-1.28,11.48-1.87,3.59-.55,6.62-2.59,10-3.59l1.92-.56C250.58,138,250.44,138.65,250,138.93Zm2.57-5.64c-3,1.15-5.78,2.91-9,3.39a6.44,6.44,0,0,0-1.86.47c-2.56,1.25-5.34,1.62-8.08,2.2s-5.53.45-8.28.89a41.19,41.19,0,0,1-8.19.8,39.2,39.2,0,0,0-11,1.43,74.34,74.34,0,0,0-8.8,2.66c-2.52,1-4.81,2.52-7.34,3.42-3.46,1.22-6.12,3.61-9,5.6A39.66,39.66,0,0,0,169.85,165a12.92,12.92,0,0,1-1.09,1.2,33,33,0,0,1,1.76-7.8,14.61,14.61,0,0,1,.78-2.37c1.25-2.42,1.74-5.22,4-7.17a19.75,19.75,0,0,0,3.56-4.36c1.67-2.64,4.36-3.85,6.9-5.24a66.76,66.76,0,0,1,10.66-4.47,53.44,53.44,0,0,1,5.68-1.18c1.82-.4,3.63-.88,5.44-1.31a8.41,8.41,0,0,1,1.4-.26,41.36,41.36,0,0,0,4.46-.17,100,100,0,0,1,14.86-1.13c2.29,0,4.58-.29,6.88-.35a45.09,45.09,0,0,1,5.93.09,38.71,38.71,0,0,0,7-.16l3.08-.21c3-.21,6-.19,8.87-1.09a16.17,16.17,0,0,1,2.1-.37l.18.63c-2.74,1.08-5.48,2.16-8.21,3.26C253.55,132.77,253.11,133.1,252.6,133.29Zm-11.21,61.1c-.55.79-1.25,1.48-1.88,2.22l-.46-.27c.43-2,.93-3.89,1.29-5.85a35.06,35.06,0,0,0,.45-4.23A34.92,34.92,0,0,1,243.18,176a9.52,9.52,0,0,0,.54-2.75c.31-5.59,2.66-10.59,4.61-15.68.72-1.87,2.14-3.47,3.2-5.22,1.18-1.93,2.34-3.87,3.46-5.83,1.25-2.18,2.36-4.43,3.68-6.56.42-.67,1.32-1,2-1.54l.43.24a11.39,11.39,0,0,1-1,2.54c-1.85,2.53-2.56,5.51-3.56,8.38-.71,2.09-1.52,4.14-2.23,6.22-.3.89-.41,1.85-.67,2.75-1.25,4.22-2.54,8.42-3.78,12.64-.73,2.49-1.24,5-2.11,7.49-1.2,3.41-2.75,6.69-3.93,10.1A22.29,22.29,0,0,1,241.39,194.39Zm31.55-66.8a43.25,43.25,0,0,0-3.76,9.44c-1.39,4.47-2.9,8.9-4.41,13.33-.67,1.95-1.46,3.87-2.21,5.8s-1.6,4-2.29,6c-.76,2.22-1.35,4.5-2.08,6.74-1.71,5.28-3.63,10.47-7.23,14.84a6.13,6.13,0,0,0-.7,1.43,60.57,60.57,0,0,1-4.7,8.16c-.06.1-.29.09-.55.17a1.49,1.49,0,0,1,.35-2.07c.9-.63.91-1.57,1.24-2.41.89-2.26,1.92-4.48,2.66-6.79,1.25-3.9,2.22-7.9,3.53-11.78.52-1.54.56-3.22,1.59-4.65.59-.81.47-2.11.79-3.14,1.89-6,3.52-12.18,5.83-18,1.44-3.69,3-7.44,5.81-10.52a51,51,0,0,0,3.81-5.45c.83-1.22.82-1.23,2.33-1.68C273,127.16,273,127.43,272.94,127.59Zm17.23,35.13c-2.85,1.22-5.73,1.83-9.25-.21l10.36-2.34C292.05,161.76,291.14,162.31,290.17,162.72Zm.05,16.68a21.11,21.11,0,0,1-2,1.33c-1.76,1-3.2.16-3.16-1.85a5.35,5.35,0,0,1,.87-2.81,10,10,0,0,1,5.88-4C293.25,175,292.62,177.75,290.22,179.4Zm8.15,1.66a5.29,5.29,0,0,1-3.08-4.12,30.92,30.92,0,0,1-.06-5.3c2.6-.56,3,1.5,3.82,2.71C300.23,176.12,299.77,179.41,298.37,181.06Zm7.07-8.42c1.53,1.53,1.27,3.05.56,5a22.08,22.08,0,0,1-5.71-6.65,4.29,4.29,0,0,0-1.74-2.15c-.22-.12-.18-.73-.26-1.11l.54-.26A35.83,35.83,0,0,1,305.44,172.64Zm-7.89-12.92c-.28-.63-.56-1.25-.83-1.87.16-.06.3-.18.43-.16a20,20,0,0,1,3.65.6,21.76,21.76,0,0,1,4,1.94,1.45,1.45,0,0,1,.76,1.82,1.27,1.27,0,0,1-1.66.91,5.94,5.94,0,0,0-1.16.12,11.49,11.49,0,0,1-1.66,0c-.62-.08-1.46-.06-1.77-.43-.47-.58-.63-1.09-1.57-.66-.4.19-1.09-.24-2.17-.54Zm-.85,5.57-1.8,2.27c-.23-1.62-.38-2.61-.61-4.17Zm-8.93-20.78a.46.46,0,0,1-.23,0c-.81-.38-2.09-.29-2-1.61s1.2-1.16,2-1.22a29.37,29.37,0,0,1,5-.08c1.36.12,2.18,1.17,3,3Zm16.73,3.71a7.59,7.59,0,0,1-5.27-2.33,1.93,1.93,0,0,1,.13-3C301.37,144.38,303.31,145.89,304.5,148.22Zm-5.83-25.73c2.94-1.79,6.12-.79,7.3,2.3A4.88,4.88,0,0,1,298.67,122.49ZM315,128.82a2.5,2.5,0,0,1,.52,3c-1.76-.31-3-1.5-4.33-2.37a9.91,9.91,0,0,1-1.38-1.3c-1.49-1.44-1.49-1.47-.39-4C311.35,125.7,313.23,127.22,315,128.82Zm-5.75-20.25c2.49-2,5.83-.88,7.54,3.44C314.13,113.48,310,111.62,309.27,108.57Zm17.6,11.51c-3.42-.48-5.52-2.49-7.72-4.48.1-.42.21-.79.28-1.16.17-.87.69-1,1.38-.62C322.25,114.51,325.8,118.1,326.87,120.08Zm-3-22.4c2.22-1.33,4.52-1,6.84-.55,1.35.29,1.2,1.49,1.66,2.31C329.61,101.59,327,101,323.88,97.68Zm10.17,4.69a13.81,13.81,0,0,1,1.42,6.88C332.35,107.41,331.83,105,334.05,102.37Zm2.51,20.43a8,8,0,0,1,5.69-1.78C340.61,123.21,338.76,123.79,336.56,122.8Zm11.63-3a1.45,1.45,0,0,1-.06,1.28c-.29.27-.9.22-1.59.35.17-1.37.78-2.61-.9-3.32A2.46,2.46,0,0,1,348.19,119.85ZM347,111.54a7.14,7.14,0,0,1-6-2c2.66-.34,5.1-.53,7.5.36C348.67,111.2,347.77,111.4,347,111.54Zm5.07,2.53c-.4-1-.84-2-1.48-3.57,1.89.35,2.57,1.11,2.72,2.42C353.45,113.71,353.19,114.13,352.11,114.07Zm53.12-48.74a1.8,1.8,0,0,1,1.16,2.25c-.26,1.14-1.18,1-2,1C403.87,66.68,403.87,66.68,405.23,65.33Zm-10.56-.17c1.68.78,3,1.69,2.94,3.36,0,1.37-1.09,2.22-2.84,2.27A5.64,5.64,0,0,1,394.67,65.16Zm-15.12,8,2.11.63-.36.69-1.93-.75ZM360.18,83.42c-2.51,1.46-5.49.41-6.87-2.43C356.74,79.12,359.29,80,360.18,83.42Zm-17.25,8.51a28.29,28.29,0,0,1-4.24-2.18c-.55-.35-.8-1.18-1.31-2,3.79-1.28,6,.83,8.52,2.73C344.85,92.06,344.15,92.45,342.93,91.93Zm5.16,8.58c-1.15-.92-.5-1.9-.53-3.33C348.49,98.49,348.75,99.35,348.09,100.51ZM348,89.85l-4.69-4c1.27-1,2.65-.37,3.91-.49s2.53,0,3.79,0a5.6,5.6,0,0,1,3.9,1.22Zm2.57,14.09a4.06,4.06,0,0,1,4.86.17C353.66,105.16,352.14,104.13,350.6,103.94ZM361,107.49c-.47,0-.78.08-.84,0a12.81,12.81,0,0,1-.74-1.3l.33-.21Zm-3.38-10.64c2-1.2,3.44.08,5.32.82C360.81,99,359.19,98.69,357.57,96.85Zm12.07,4.57L365.88,99c1-.65,1.45-1.76,2.46-1.1A2.8,2.8,0,0,1,369.64,101.42Zm-2.19-8.79c-1.07-.15-2.13-.62-2.25-2,2.38-1.37,4-1,5.71,1.4C369.9,93.83,368.56,92.77,367.45,92.63ZM375.12,94a1.67,1.67,0,0,1,.15-1.42,1.38,1.38,0,0,1,1.19-.39c1.19.26,1.84,1.46,1.75,3.27C376.79,95.53,375.7,95.2,375.12,94Zm2-9.58c1.78-1.55,3.11.11,4.93.49C380.19,86.48,379,86.29,377.09,84.44Zm10.07,6.47c-.74-1.25-1.62-2.09-1.19-3.45C387.91,89.08,388,89.31,387.16,90.91ZM386,80.47c1.92-1.12,2-1.12,4.21-.14C388.31,81.75,388.23,81.75,386,80.47Zm11.06,4a3.78,3.78,0,0,1-3.47-2.13c.51-.9,1.17-1.51,2.25-1C397.12,81.88,397.37,83,397.08,84.44Zm13.32-4.89a2.9,2.9,0,0,1-3.55-1.88l1.22-1.88C409.06,77,411.09,77.34,410.4,79.55Zm4-8.21c-4.24,1.17-8.52,2.16-12.48,4.2-2.81,1.44-5.77,2.57-8.7,3.76a2.05,2.05,0,0,1-1.55-.13,6.94,6.94,0,0,0-7.07.15c-.83,2,1.27,1.93,2.23,2.92l-2.82,2a22.43,22.43,0,0,0-3.22-1.66,8.62,8.62,0,0,0-3.23-.43c-.78,0-1.78.22-1.95,1.4a2.87,2.87,0,0,0,.81,2.84c.55.45,1.15.82,2,1.4L373,90.42c-.78-.5-1.75-1.2-2.79-1.79a5.33,5.33,0,0,0-5.62.23c-1.6,1.31-1.69,2.6-.24,4a7.46,7.46,0,0,0,1.14.87c.38.26.8.47,1.21.71-.87,2-1.55,2.33-3.61,1.58a20.48,20.48,0,0,0-3.65-1,4.4,4.4,0,0,0-2.31.35,1.82,1.82,0,0,0-.46,3.11,20.52,20.52,0,0,0,3.13,1.85l-3.24,2.81c-1.73-.33-3.35-2-5.64-.86.5-3-.55-5.39-1.68-7.75a1.93,1.93,0,0,1,1.06-2.91c5.71-2.72,11.4-5.49,17.13-8.16,2.5-1.16,5.1-2.08,7.64-3.15,2-.83,3.85-1.87,5.86-2.54,3.73-1.25,7.48-2.44,11.29-3.39,5-1.25,10-2.33,15-3.32,2.86-.56,5.77-.79,8.7-1.17C415.92,71.24,415,71.17,414.4,71.34Zm4.06-6.25c1.72-.22,2.77.22,4.24,1.79C418.8,67.26,418.8,67.26,418.46,65.09ZM423,75.57a10.51,10.51,0,0,0-1,.6,3.5,3.5,0,0,1-1.74-3.48c.1-1,.61-1.34,1.58-1.28,1.47.09,1.65,1.37,2.11,2.28S423.83,75.17,423,75.57Zm26.72,47.83a13.34,13.34,0,0,1-7-4.11,2.39,2.39,0,0,1-.59-1.51c0-1.93.16-3.86.27-6,2.22,1.5,5.53,1.7,6.23,4.86C449.11,118.83,451.64,120.7,449.76,123.4Zm-5.11-18.06c2.32.44,4.62,1.07,7,1.37s4.39,1.29,6.6,1.66c3.9.66,7,2.88,10.31,4.67.77.42,1.17,1.53,1.8,2.41-1.83,1.53-3.51.9-5,.86-2.26-.07-4.51-.61-6.77-.89a23.12,23.12,0,0,1-7.92-2.09,4.75,4.75,0,0,1-2.1-1.75,14.36,14.36,0,0,0-5.23-5.93A5.09,5.09,0,0,1,444.65,105.34Zm-.55,4.82c-1.77-1-3.48-1.47-3.62-4.21C441.94,107.41,443.6,108,444.1,110.16ZM401.5,92.08a22.65,22.65,0,0,1,4.2,0c2.49.35,5,.85,7.43,1.37a38.55,38.55,0,0,1,5,1.36c2.36.86,4.66,1.87,7,2.87a2.66,2.66,0,0,1,1,1c1.17,1.74,2.3,3.51,3.49,5.33-1.94-.43-3.92-1-5.94-1.3-3.1-.47-6.22-.78-9.33-1.16-1.5-.18-3-.37-4.48-.53-2.43-.27-4.86-.57-7.3-.74a2.08,2.08,0,0,1-2.12-1.56,24.74,24.74,0,0,1-1.19-4.06C399,92.94,399.76,92.17,401.5,92.08Zm32.68,18.48c-.33,1.39-.33,1.39-4.3,4.43C430.86,112.74,431.77,111.06,434.18,110.56Zm-3.34-5.71.4-.5,1.13.93-.26.37C431.69,105.38,431.27,105.11,430.84,104.85Zm-19.16,8.76c5.88-2.88,12.28-3.8,19-4.83C428.38,111.46,416.06,114.3,411.68,113.61Zm-3.61-9.37c0-.2,0-.4,0-.6a5.63,5.63,0,0,1,1.73-.33,152.15,152.15,0,0,1,17.32,2.86C420.52,107.59,414.43,104.8,408.07,104.24Zm-4,9.43a39.07,39.07,0,0,1-12.32-3.92A8.59,8.59,0,0,1,387,104a3.87,3.87,0,0,1,3.28-1.37c2.38.06,4.77,0,7.15,0a6.68,6.68,0,0,1,4,1.09,12.82,12.82,0,0,0,5,1.92c2.47.47,4.85,1.35,7.29,2,1.43.35,2.9.53,4.35.79-4.22.8-7.58,3.11-11.07,5.07A4,4,0,0,1,404,113.67Zm20.39,4a57.81,57.81,0,0,1-7.3,2,19.68,19.68,0,0,1-7.72.07,5.13,5.13,0,0,1-3.57-2.31,2.37,2.37,0,0,1,2.5-1.22,36.79,36.79,0,0,0,13.93-1.67,51.49,51.49,0,0,1,6.06-1.34C427.55,115.5,426.55,116.94,424.42,117.72Zm15.14,2.34c-.95,2.13-.42,4.73-2.37,6.58-1.44,1.36-2.75,1.64-4.35.48-2.11-1.53-3-3.82-3.75-6.11a3.69,3.69,0,0,1,2-4.35c1.49-.86,3-1.69,4.67-2.61,1.22,1.82,2.41,3.58,3.58,5.36C439.45,119.6,439.63,119.9,439.56,120.06Zm.48-4.25c-2.69-1.91-3.14-3.64-1.45-6.18C440.18,111.63,439.64,113.74,440,115.81Zm-1.87-19.94c-1,1.48-2.18,2.89-3.35,4.27-.27.32-.83.39-1.1.5l-4.1-3c-1.51-1.07-1.87-2-1.3-3.69a9.8,9.8,0,0,1,6.26-6.34c2.08-.78,4.88,1.42,4.95,3.77A7.31,7.31,0,0,1,438.17,95.87ZM561.22,90.8a75.17,75.17,0,0,0-5.85-5,49.63,49.63,0,0,1-8.7-9.49,35.08,35.08,0,0,0-2.55-3c-3.44-3.63-5.42-8.08-7.53-12.52-1.82-3.84-3.28-7.86-5.72-11.42a49,49,0,0,1-3.07-5.83c-.09-.17,0-.45.07-.83a4.76,4.76,0,0,1,1.1.48c.38.28.62.76,1,1,2.28,1.51,3.11,3.54,3.39,6.32a17.55,17.55,0,0,0,2.81,7A49.75,49.75,0,0,0,542.83,66c2.12,2.21,4.32,4.34,6.42,6.55,2.62,2.75,5.23,5.5,8,8.11,1.47,1.4,3.23,2.5,4.82,3.78,2.61,2.13,5.17,4.32,7.8,6.44,2.32,1.87,4.69,3.68,7.06,5.49q4.22,3.21,8.47,6.35c1.45,1.07,3,2,5,3.42-.86.12-1.19.27-1.43.18-4.21-1.73-8.51-3.32-12.6-5.31a65.29,65.29,0,0,1-7.83-4.91A49.86,49.86,0,0,1,561.22,90.8Zm14.12,13.27-.13.55-2.1-.63.13-.47ZM568.71,102c-.94.79-1.6.53-2.09-.25ZM487,94.4a9.26,9.26,0,0,1,1.58-.35c2.68,0,5.35.1,8,0,1.17,0,2.33-.5,3.5-.61,3.69-.36,7.38-.82,11.08-.91,2.91-.07,5.83.35,8.75.55,2.76.19,5.52.32,8.27.58,3.15.3,6.32.57,9.43,1.1,3.74.63,7.44,1.49,11.13,2.32.92.21,1.74.76,2.65,1,1.29.39,2.6.73,3.92,1,3.47.7,7,1.35,10.43,2,.25,0,.45.33.67.52a4.72,4.72,0,0,1-1.61.33c-3.28-.4-6.54-1-9.82-1.33-3.78-.41-7.57-.79-11.37-1s-7.86-.14-11.8-.22a20.24,20.24,0,0,1-4.88-.26c-2.63-.72-5.17.3-7.77,0s-5.05,0-7.57,0c-3.16-.07-6.32-.28-9.48-.41a56.55,56.55,0,0,1-6.91-.7A15.42,15.42,0,0,1,487,94.4Zm103.34,19.69c-4.54-.64-9.08-1.27-13.62-2-1.32-.19-2.62-.59-4-.77-1.07-.15-2.19,0-3.25-.19a63.3,63.3,0,0,0-9.62-.73c-2.83-.07-5.65-.51-8.48-.65-2.51-.12-5,0-7.55-.08a37.22,37.22,0,0,1-5.7-.31,63.52,63.52,0,0,0-7.54-.51c-2.75-.15-5.49-.53-8.23-.88q-3.31-.42-6.62-1a69.2,69.2,0,0,1-7.14-1.53c-3.24-1-6.41-2.18-9.6-3.32a7.24,7.24,0,0,1-1.34-1.05c1.91,0,3.22,0,4.54,0,.71,0,1.42.13,2.13.22a21.54,21.54,0,0,0,5.9.16c2.2-.3,4.51.14,6.77.21,3.28.1,6.56.14,9.83.24,5.19.16,10.38.36,15.58.51,2.43.07,4.86,0,7.29.07a2.32,2.32,0,0,1,.7,0c4,1.31,8.23,1.17,12.33,1.83,5.17.84,10.34,1.65,15.19,3.77,1.17.5,2.41.83,3.59,1.31q4.65,1.84,9.26,3.76a8,8,0,0,1,1.07.72A11,11,0,0,1,590.36,114.09Zm11.29-2.87c-1.51-1-2.92-2.17-4.38-3.25-4.75-3.54-9.53-7-14.25-10.62-2.32-1.75-4.53-3.65-6.83-5.44-1.65-1.28-3.58-2.26-5-3.75-2.19-2.32-5-3.74-7.32-5.89-2.64-2.47-5.57-4.65-8.16-7.16-3.36-3.25-6.45-6.77-9.77-10a54.13,54.13,0,0,1-8.07-9.51c-1.37-2.16-2.41-4.53-3.81-7.21a3.78,3.78,0,0,1,2.65,1.26A78.59,78.59,0,0,0,550.25,61.1c1.87,1.3,3.89,2.28,5.85,3.41,3,1.74,5.87,3.81,8.72,5.85,3.14,2.23,6.26,4.49,9.25,6.91C576.15,79,578,81,579.93,82.75c3.09,2.82,6.29,5.53,9.31,8.42A55,55,0,0,1,593.37,96c1.1,1.31,2.07,2.75,3.29,4a29.5,29.5,0,0,1,4.48,6.33c1,1.72,2.3,3.29,3.45,4.94.34.49.64,1,1.1,1.72C603.79,113.1,602.77,112,601.65,111.22Zm49.76,44.06c-1-1.38-2.48-2.39-3.62-3.68-1.4-1.58-2.66-3.27-4-4.91-.79-1-1.62-1.93-2.39-2.93-1.4-1.81-2.89-3.57-4.12-5.49a48.33,48.33,0,0,1-2.5-5.11c-.1-.21-.13-.46-.25-.67-1-1.67-2-3.33-2.95-5a48.84,48.84,0,0,1-2.72-5.22c-1.63-4-3.24-8-4.59-12.11a88.17,88.17,0,0,1-3.81-16.81,32.3,32.3,0,0,1,.37-6.41c0-.67.24-1.34.39-2.2a4.22,4.22,0,0,1,1.3,3.79,19.53,19.53,0,0,0,3,12c1.71,2.78,3.46,5.54,5.19,8.31.17.27.31.56.46.84q3.33,6.4,6.66,12.82c.42.81.88,1.6,1.36,2.37a43.66,43.66,0,0,1,3.86,8.63,33,33,0,0,0,1.72,3.34c1,2.07,1.88,4.2,2.91,6.25.94,1.88,2,3.69,3,5.55.71,1.32,1.38,2.65,2,4,.87,1.78,1.71,3.56,2.75,5.74A7.91,7.91,0,0,1,651.41,155.28Zm13,11.79-.84.18c-1.16-1.87-2.44-3.68-3.44-5.63-1.28-2.48-2.31-5.09-3.5-7.63-.82-1.77-1.63-3.56-2.62-5.24-2.06-3.53-3.76-7.23-5.51-10.92a72.8,72.8,0,0,1-2.87-7.05.88.88,0,0,0-.21-.42c-1.34-.86-1.41-2.37-2-3.65-.82-1.93-1.71-3.84-2.67-5.7-1.7-3.31-3.4-6.64-5.26-9.86-1.42-2.47-3.09-4.78-4.62-7.19-.67-1.06-1.28-2.16-1.9-3.27s-1.18-2.42-1.92-3.54a5.44,5.44,0,0,1-1-4.77,20.43,20.43,0,0,1,2.69,3.05,12.24,12.24,0,0,0,3.6,3.94,8.22,8.22,0,0,1,2.34,2.36,12.11,12.11,0,0,0,1.87,2c1.79,2,3.47,4,5.3,5.92s3.25,4.25,5.33,6a2.7,2.7,0,0,1,.52.76q3.76,6.89,7.54,13.75a2,2,0,0,0,.39.58,12.06,12.06,0,0,1,2.94,5.1c.85,2.36,1.68,4.74,2.73,7a35.2,35.2,0,0,1,2.56,9.79c.46,3.2.8,6.42,1,9.65A29.59,29.59,0,0,1,664.39,167.07Zm-12.82,61.78c-1.15,0-2.51-1.87-2.38-3.31a2.58,2.58,0,0,1,2.66-1.9c1.2.05,2.87,1.6,2.84,2.64A2.87,2.87,0,0,1,651.57,228.85Zm16.29,2.74c-.16,1.83-1.11,2.57-3.92,2.86-.46-2.48-.93-4.89,1.18-6.95C668.14,228.33,668.14,228.33,667.86,231.59Zm1.15-7.11-3.41-1.09a4.26,4.26,0,0,1,3-5.31c.82-.14,1.42.13,1.56,1C670.44,221,670.58,222.91,669,224.48Zm11.46,12a5.44,5.44,0,0,1-2.48.36,4,4,0,0,1-2.21-1c-.24-.24.25-1.21.48-2.15l6,1.23C681.34,235.67,681,236.25,680.47,236.43Zm2.36-8.47c-.84-.42-1.55-.72-2.21-1.09-1.88-1.07-1.9-2.39-.08-3.47l1.44-.83A8.42,8.42,0,0,1,682.83,228Zm11.44,13.49A5.44,5.44,0,0,1,692,241a2,2,0,0,1-.82-1.48c0-.35.65-.93,1.09-1,1.37-.23,2.77-.28,4.24-.41C697.28,240.94,696.83,241.56,694.27,241.45Zm-2-8,.38-.29.91,1.13-.49.35C692.81,234.25,692.55,233.85,692.28,233.46Zm4.54-1c-.9-2.74-2.76-3.5-4.89-3.75.29-3.15.3-3.18,2-4.66C696.76,225.28,698,228.4,696.82,232.43Zm17.87,22.85c.52,1.39.89,2.37,1.33,3.56C714.35,258,714.35,258,714.69,255.28Zm-5.45,8.49a4.37,4.37,0,0,1-.32-4.51c.56-1.42,1.66-1.81,2.82-.84a15.58,15.58,0,0,1,3.53,3.77,37.92,37.92,0,0,1,2.32,5.64c.14.36.25.75.53,1.62-1.51.06-2.74.17-4,.13a1.73,1.73,0,0,1-1.19-.64C711.68,267.25,710.5,265.47,709.24,263.77Zm2.38,11c-.66-.48-1-1.11-.57-1.8a1.32,1.32,0,0,1,2-.46,20.06,20.06,0,0,1,4.92,5.26A15.15,15.15,0,0,1,711.62,274.79Zm4.22-3.29c2.62.72,3.35,2.26,3.34,4.31Zm4.24-10.81A71.66,71.66,0,0,1,723,253a5.49,5.49,0,0,1,.84-1c2,5.25,1.12,9.79-2.29,14.4C720.25,264.37,719.6,262.5,720.08,260.69Zm6.38,18.44a3,3,0,0,1-1-2.44,15.34,15.34,0,0,1,1-4.31,24.23,24.23,0,0,1,7.26-9.53,3.72,3.72,0,0,1,1.14-.44,4.48,4.48,0,0,1,.32,3.93c-1.51,4.22-3,8.44-6.62,11.52C727.91,278.46,727.41,279.67,726.46,279.13ZM478.77,620.24a47.29,47.29,0,0,1-5.84-14.68c2.23-1.34,2.45-.63,1-5l3-1.08c.95,2.73,3.17.69,4.93,1.59l-2.77,3.74,2-.49A37.25,37.25,0,0,0,478.77,620.24ZM174,468.42a5.49,5.49,0,0,1,3.59-3.54c4.15-1.2,8.39-2.24,12.75-.76,1.4.47,3,.49,4.29,1.13,4.2,2,8,4.72,10.1,9,1.61,3.25,2.89,6.67,4.38,10a8.93,8.93,0,0,0,1.38,1.9,30.56,30.56,0,0,0,8,7.24,17.69,17.69,0,0,1,6.13,6.37c1.35,2.22,1.71,4.47,2.3,6.79a4.28,4.28,0,0,1-1.5,4.45c-3.14,2.89-7.08,3.9-11.11,4.86a21.47,21.47,0,0,1-6.52.43,54.64,54.64,0,0,1-5.71-1,44.75,44.75,0,0,0,3.81-3.74,24.49,24.49,0,0,0,3.23-5c.77-1.65,1.76-3.41.86-5.83a15.46,15.46,0,0,0-1.81,2c-1,1.61-1.69,3.41-2.78,4.93-2.58,3.6-5.53,6.65-10.37,7.2-1.79.2-3.47,1.37-5.17,2.17-1,.47-1.91,1.08-2.84,1.61-1.08-1.48-1.11-1.64.09-2.19,4.46-2.05,6.76-6.06,9.27-10a30.86,30.86,0,0,0,3.73-8.38,10.26,10.26,0,0,0-.3-7.08L199,491a26.66,26.66,0,0,0-1.38,4.43,26.34,26.34,0,0,1-5.14,11.85c-1.2,1.67-2.25,3.46-3.55,5.06a5.8,5.8,0,0,1-4.42,2.61,15.16,15.16,0,0,1,1-1.67,27.66,27.66,0,0,0,5.11-12c.3-1.5,1.16-2.91,1.32-4.42.35-3.21.41-6.45.58-9.68.06-1.13-.67-1.73-1.59-2.26-.9.28-1.63.79-1.41,1.84.86,4.15-.4,8.09-1.21,12.06-.6,2.92-1.35,5.82-2.17,8.69a8.6,8.6,0,0,1-2.1,3.37,29.27,29.27,0,0,1-1.36-4.74,22,22,0,0,0-2.48-7c-.47-1-.72-2.1-1.16-3.1a85.14,85.14,0,0,1-4.24-13.61c-.3-1.13-1-2.17-1.23-3.3a20,20,0,0,1-.69-5.12A22.22,22.22,0,0,1,174,468.42Zm7.82,51.26,1.5-2.14C183.59,519.09,183.2,519.52,181.79,519.68Zm-51-68.72c3.15,1.8,5.91,3.46,8.75,5a39.91,39.91,0,0,1,9.21,7.43c1.79,1.81,3.8,3.49,5.49,5.42s3.31,4.35,4.9,6.58a9.38,9.38,0,0,1,.71,2c-3.47-1.42-6.68-2.24-9.41-4.17-2-1.45-4-3.05-6-4.5-3.34-2.39-5.81-5.57-8.19-8.85-.7-1-1.51-1.85-2.21-2.81-1.1-1.52-2.18-3.05-3.21-4.62C130.69,452.16,130.83,451.7,130.83,451Zm-9.11-3.65a8.4,8.4,0,0,1,5.93,4.53c2,3.8,4.83,7.21,7.4,10.71a35.28,35.28,0,0,0,4.54,5.35,64.83,64.83,0,0,0,6.07,4.41,4,4,0,0,1,1.18,1.2,56.86,56.86,0,0,1-17.17-7.27,10.07,10.07,0,0,1-2.88-3.41c-2.39-4.08-4.65-8.23-6.93-12.37-.57-1-1-2.16-1.67-3.6A33.64,33.64,0,0,1,121.72,447.31Zm-7.7-1.69a3.49,3.49,0,0,1,2.42,2.06c1.14,2.18,2.27,4.36,3.46,6.5,1.08,1.93,2.28,3.79,3.36,5.72.36.63,1.16,1.22.38,2.24-4.64-2.87-9-6-12-10.74a54.64,54.64,0,0,0-4.94-5.87c-.39-.45-.73-.94-1.45-1.87C108.56,444.4,111.29,445,114,445.62ZM109.46,453c-1.52.21-1.74-1.1-2.52-1.57C108.46,450.65,108.77,451.88,109.46,453Zm11,15.8c-.12.11-.22.17-.21.21.07.37.16.74.31,1.38-.61-.13-1.19-.09-1.53-.36-4.22-3.33-8.35-6.75-11.25-11.39a20.65,20.65,0,0,0-2.36-2.92c-3.69-4.06-5.9-9-8.14-13.88a6.77,6.77,0,0,1-.23-1.13c.69.21,1.33.22,1.66.54,1.35,1.32,3.33,1.8,4.22,3.83.74,1.68,2.25,3,3.46,4.48.46.56.87,1.09.48,1.82-1.43-1.37-2.82-2.77-4.24-4.14-.14-.14-.41-.14-.8-.25,0,1.55,1.22,2.27,2,3.18a58.43,58.43,0,0,0,4.23,4.53,25.87,25.87,0,0,0,3.14,2.57c3,2.16,6.12,4.28,9.2,6.39,2.32,1.59,4.65,3.18,7,4.68a52,52,0,0,0,4.71,2.54c2,1,4,1.86,6,3A35.71,35.71,0,0,1,120.48,468.75Zm7.29,6.45c2.08-.66,2.09-.66,2.81.87C129.27,477,129,475.32,127.77,475.2Zm8.61,3.21c-1.61-.4-3.18-.94-4.75-1.49-.38-.14-.65-.55-1-.85a5.14,5.14,0,0,1,1.7-.41c2.36.21,4.7.58,7.06.8a34,34,0,0,0,3.78.09,10.42,10.42,0,0,1,4.79,1.08c1.53.76,3.22,1.17,4.85,2.14-.38.12-.75.28-1.14.37C146.41,481.27,141.41,479.66,136.38,478.41Zm23.34,25.3c5.37.17,10,2.43,14.36,5.25,1.74,1.11,3.52,2.21,4.55,4.12a1.43,1.43,0,0,1,.14,1.1c-.89-.55-1.78-1.13-2.69-1.65-2.19-1.24-4.74-1-7.05-1.62-2.65-.77-5.33-.32-7.95-.19a92.5,92.5,0,0,0-10.29,1.52,5.23,5.23,0,0,0-1.43.73c-.08,1.65.94,1.72,2,1.62,2.75-.24,5.49-.54,8.25-.74,3.21-.24,6.43-.64,9.65.18,2.11.54,4.3.78,6.44,1.26,1.12.25,1.7,1.08,1.75,2.54a25.18,25.18,0,0,0-2.81-.19c-2.7.11-5.42.14-8.09.51-3.21.44-6.38,1.19-9.55,1.84-5.51,1.13-11,2.48-16.53,3.35a17.53,17.53,0,0,1-7.31-.16c-2.2-.6-5.36-3.45-5-7.19.29-3.2,2.47-4.14,4.91-4.91,1.88-.6,3.81-1,5.72-1.49,2.83-.73,4.41-2.55,5.52-5.28,1.26-3.12,1.6-6.4,2.41-9.58.5-1.92,1-3.85,1.59-5.73a5.84,5.84,0,0,1,3-3.8c1.57-.74,3-1.82,4.56-2.52a10.81,10.81,0,0,1,8.34-.12c.44.16.9.27,1.34.42,2,.69,3.82,1.43,4.89,3.49.57,1.08,1.84,1.79,2.45,2.86a67.43,67.43,0,0,1,4,7.76c1.13,2.76,1.88,5.68,3,9.06a21.36,21.36,0,0,1-1.76-1.4,80,80,0,0,0-10.62-9.19c-1.21-.89-2.53-1.61-3.79-2.44-.76-.51-1.33-.39-1.86.63a13.89,13.89,0,0,0,1.47,1.37c2.35,1.72,4.87,3.24,7.07,5.12,3.23,2.78,6.28,5.77,9.34,8.74,1.19,1.15,1.36,1.82,2,4.51-1.4-1.44-2.57-2.65-3.76-3.84a27.26,27.26,0,0,0-12.07-6.79c-2.56-.72-5.18-1.48-7.94-1.21-1.09.1-1.57.56-1.51,1.76C157.53,503.52,158.63,503.68,159.72,503.71Zm31.21,38.52c-1.77,2.49-.49,5.43-1.24,8.06A75.58,75.58,0,0,1,187,559.1c-1,2.43-3.49,3.66-5.77,4.77a11.84,11.84,0,0,1-11.11,0c-1.9-1-2.71-2.84-3.78-4.45-1.31-2-2.22-4.19-3.55-6.13a29.7,29.7,0,0,0-5.54-6.74,9.36,9.36,0,0,0-5.32-1.86c-2.19-.19-4.36-.67-6.59-1-.42-1.83-.7-3.25-1.09-4.63a3.05,3.05,0,0,1,1.29-3.51,16.87,16.87,0,0,1,7.77-3.44c5.45-1,10.76-2.46,16.08-3.94,1.65-.46,3.22-1.22,4.83-1.83a10.6,10.6,0,0,1,2.5-.7c-2.3,2.27-4.12,5-7.14,6.38a2.81,2.81,0,0,0-.76.57L163.42,538c1.86,0,4.54-1.42,10-5.8,3-2.44,5.82-5.22,8.72-7.85a2.52,2.52,0,0,1-.4,2.79q-5.16,6.95-10.32,13.88c-.79,1.06-1.59,2.11-2.53,3.36,2.38-.69,6.48-5,9.78-8.92,2.85-3.35,4.53-7.32,7-11.35,1.91,6.77-1,11.86-4.09,17,1.36.78,2.43,0,3.18-1,2-2.64,3.86-5.43,4.46-9,.59,3.37,1.19,6.74,1.77,10.11A1.48,1.48,0,0,1,190.93,542.23ZM186.19,576a23.4,23.4,0,0,1,3-7.08c1.57-2.33,2.88-4.83,4.37-7.21a7.61,7.61,0,0,1,1.59-1.34c.25,2.34.6,4.29.62,6.24a5.78,5.78,0,0,1-.84,3.14,53,53,0,0,1-4.13,5.21c-1.38,1.59-2.86,3.09-4.3,4.62l-1.23.17C185.58,578.4,185.86,577.2,186.19,576ZM184,587.94c.07-1.24.39-2.48.34-3.71a5.82,5.82,0,0,1,2.05-4.57c1.21.51,2-.32,2.68-1,1.87-1.84,3.66-3.76,5.49-5.64.21-.22.46-.4.74-.65.32,3.86-.3,6.06-2.6,9-1.51,1.93-3.05,3.83-4.64,5.7a12.27,12.27,0,0,1-2.25,2.07,1.81,1.81,0,0,1-1.51.1C184.1,589.1,184,588.38,184,587.94Zm.43,14.67c-.1-3.77-1-7.51-.3-11.46,3.7-.07,5.29-3,7.29-5.41,1-1.25,1.88-2.69,3.06-4.4.17,4.41,0,8.34-2.39,11.83q-2.76,4-5.57,8a20.67,20.67,0,0,1-1.53,1.72Zm2.26,10.77-.47-.21c-.3-2.09-.64-4.18-.9-6.28a2.82,2.82,0,0,1,.6-2.4c2.3-2.82,4.42-5.79,6.61-8.7a4.46,4.46,0,0,1,.74-.56C192.27,601.9,189.15,607.51,186.73,613.38ZM197.23,603a15.71,15.71,0,0,1-2.43,4.35c-1.65,2.33-3.45,4.55-5.2,6.8a1.23,1.23,0,0,1-.82.35c1.51-3,3.26-5.89,4.22-9.12a95.56,95.56,0,0,0,2.69-9.59,68.05,68.05,0,0,0,1.43-9.65C199.67,591.83,198.92,597.45,197.23,603Zm6.61-20.37c-.74,3.1-.67,6.36-1.88,9.35a5.61,5.61,0,0,1-.56,1c-.05.08-.29,0-.59.07-.8-3.15-.37-6.87-3.66-9,.28-3.8.56-7.61.86-11.71,1.54,1.43,2.85,2.68,4.19,3.88C204.17,578,204.4,580.32,203.84,582.62Zm.1-7.31c-2-1.59-3.84-3-5.59-4.44a1.87,1.87,0,0,1-.45-1.27c0-2.2,0-4.39,0-7a12.34,12.34,0,0,1,1.74.64c2.19,1.26,3.87,2.86,4,5.65.07,1.47.44,2.93.59,4.41A10.15,10.15,0,0,1,203.94,575.31Zm1.77-14.26c-.82.33-1.88,0-2.82.13-2.19.2-3.45-1.47-4.88-2.57a12.09,12.09,0,0,1-5.17-9.88,53.56,53.56,0,0,1,.45-6.22,21.8,21.8,0,0,0-.42-6.34c-.58-2.95-1.48-5.83-2.31-8.72-.24-.83-.73-1.58-1.05-2.39a12.31,12.31,0,0,1-.37-1.48l.52-.4a15.3,15.3,0,0,1,2.63,1.49,45.4,45.4,0,0,1,8.25,8.69c1.74,2.53,3.14,5.29,5.05,7.7.23.3.49.58,1.12,1.33a8.39,8.39,0,0,0-.67-4.51c-2.7-5.2-5.92-10-10.95-13.43a6.86,6.86,0,0,1,4.54.91c2.79,1.56,5.6,3.09,8.53,4.7a5.38,5.38,0,0,0-2.14-3.68,26.86,26.86,0,0,0-5.54-3.63,27.62,27.62,0,0,0-5.2-1.26A11.6,11.6,0,0,1,194,521a11.56,11.56,0,0,1,7.18-1.48c3,.14,6,.12,9,.55a23.28,23.28,0,0,1,6.29,1.94c3,1.37,5.9,3.05,7.77,5.92,1.76,2.69,2.84,5.4,1.84,8.87a24.82,24.82,0,0,1-3.3,7.38,14.83,14.83,0,0,1-1.39,1.58,1.46,1.46,0,0,1-1.84.45,5.12,5.12,0,0,0-4.56.92c-2.2,1.59-4.6,3.38-4.58,6.48,0,2-1,3.68-1.71,5.36C208.28,559.94,206.83,560.6,205.71,561.05Zm46.55,47.87,1.77,2C252.69,610.86,251.78,610.45,252.26,608.92Zm19.27,15c2.48,2.6,4.91,5.3,6.36,8.75a69.73,69.73,0,0,0,4.12,8,73,73,0,0,1,4.32,10,93,93,0,0,0,5.5,12.28c1,1.76,1.45,3.84,2.42,5.63,2.28,4.21,4.05,8.67,6.86,12.63a72.75,72.75,0,0,0,4.37,6.14c.21.24.13.72.29,1.71-2.14-1.55-3.76-2.89-5.53-4a31.51,31.51,0,0,0-5.48-2.74c-2.61-1-5.31-1.73-7.86-2.87a60.13,60.13,0,0,0-5.93-2.78c-3.14-1-5.66-3.1-8.52-4.58-.38-.19-.63-.65-.92-1s-.66-1.15-1.16-1.47c-2.83-1.84-4.6-4.55-6.32-7.34-1.27-2.07-2.8-4-4-6.11a34.52,34.52,0,0,1-1.78-4.78c-1.1-3-2.38-5.9-3.26-8.94A53.23,53.23,0,0,1,254,635.6c-.18-1.16-.45-2.3-.55-3.47-.13-1.41-.1-2.84-.16-4.25,0-.94-.19-1.88-.15-2.81.15-3.39-.43-6.74-.49-10.11a18.11,18.11,0,0,1,.41-2.88,10.69,10.69,0,0,1,2,1.48c1.5,1.94,2.87,4,4.37,5.93a19.2,19.2,0,0,1,3.21,7.89,116.55,116.55,0,0,1,2.17,18.07c.33,5.55,1.48,11,4.95,15.68,1.88,2.55,4.43,5.51,7,6.71-.17-2.13-1.57-3.65-2.75-5.11a25.69,25.69,0,0,1-4.86-8.81c-.79-2.74-1.82-5.57-1.72-8.6a50.49,50.49,0,0,0-.51-6.82c-.22-2.2-.51-4.38-.8-6.81a5.17,5.17,0,0,1,.88.84c.84,1.43,1.73,2.85,2.45,4.35a63.74,63.74,0,0,1,3.35,9.56c1,3.34,1.36,6.93,2.74,10.08a40.83,40.83,0,0,0,6.27,10.1,57.44,57.44,0,0,0,7.9,8.15.73.73,0,0,1,.28.38c.42,2.54,3,2.88,4.49,4.28.27.25,1,0,1.68,0a5.59,5.59,0,0,0-1.32-3c-2.89-3.08-5.36-6.54-8.54-9.38a13.73,13.73,0,0,1-2.35-3,24.85,24.85,0,0,0-3.38-4.83,9.49,9.49,0,0,1-2-3.74c-1-3-1.89-6-2.73-9.06-1.08-3.91-1.83-7.92-4-11.44-.06-.09.05-.28.18-.84l10.91,15.12a20.17,20.17,0,0,0-4.61-9.78c-2.68-3-4.94-6.39-7.41-9.57a22.89,22.89,0,0,0-2.54-2.84c-3.37-3-5-7.19-7.32-11.24.64-.06,1.18-.29,1.39-.11C265.49,618.4,268.72,621,271.53,623.91Zm130.22,9.4a31,31,0,0,1,9.93.12l-5,2.78c-.19.1-.56,0-.67.13-1.88,2.27-4.83,2.46-7.25,3.67a64,64,0,0,1-7.75,2.85,87.26,87.26,0,0,1-9.84,3.16c-1.95.42-3.81,1.81-6,1.05-4,1.28-8.23,1.07-12.28,2.13a50.34,50.34,0,0,1-6.42.89l-.14-.47c1.26-.54,2.5-1.12,3.78-1.63,5-2,9.95-4.2,15.06-5.89a54.47,54.47,0,0,1,6.41-2.23c1.69-.35,3.31-1.42,5-2.13,2.8-1.18,5.73-1.74,8.58-2.68A36.42,36.42,0,0,1,401.75,633.31Zm-3.06-2.53c0,.2.07.41.1.61l-2.37.47C397.27,630.56,398,630.6,398.69,630.78Zm-59.26,50c-4.45-2.33-7.46-6.1-10.19-10.19-1.36-2-3.13-3.78-4.51-5.8-1.91-2.79-3.61-5.72-5.44-8.57s-3.64-5.53-5.44-8.31a9.3,9.3,0,0,1-.55-1.73,12.4,12.4,0,0,1,2.68,1.19c2.85,2.37,5.64,4.82,8.43,7.26.52.47.94,1.06,1.42,1.58,2.05,2.29,4.21,4.48,6.12,6.88a62.3,62.3,0,0,1,3.45,5.38c.67,1,1.41,2,2.13,3,1.45,2,2.93,3.93,4.37,5.91a55.66,55.66,0,0,1,4.53,7C344.1,683.18,341.76,682,339.43,680.79ZM338,662.87c.28.27.52.67.86.81,3.3,1.3,5.07,4.34,7.18,6.82,1.44,1.69,3.23,3.23,4.23,5.47.81,1.83,2.9,3,4,4.77,1.59,2.38,3.86,4.08,5.6,6.28.54.67,1,1.4,1.72,2.42-.79,0-1.27.14-1.6,0a34.19,34.19,0,0,1-5.61-3c-2.56-1.95-4.85-4.25-7.23-6.43a7.65,7.65,0,0,1-1-1.3c-2.43-3.31-4.86-6.62-7.26-10a26.16,26.16,0,0,1-2-3.17,27.89,27.89,0,0,0-4.75-6.21,20.47,20.47,0,0,1-1.7-2.38l.41-.34a22.11,22.11,0,0,1,2,1.43C334.57,659.63,336.25,661.26,338,662.87Zm-.82-13a13.81,13.81,0,0,0-2.71.17l-.15-.55c2.08-.86,4.17-1.7,6.24-2.58,1.1-.47,2.14-1.06,3.24-1.48s2.11-.64,3.17-.95c.15,0,.37.06.46,0,2.29-2,5.63-1.6,7.88-3.57,1-.9,2.43-.28,3.55-1.26.89-.79,2.5-.75,3.77-1.13,1.71-.5,3.62-.74,5.08-1.66,2.63-1.67,5.63-1.92,8.47-2.77,2.62-.78,5.26-1.53,7.92-2.17a27.4,27.4,0,0,1,3.53-.34c2.24-.23,4.49-.45,6.72-.72.75-.09,1.2.14,1.49,1-3.05.14-5.6,1.57-8.28,2.67-2.4,1-5,1.56-7.39,2.51-3.58,1.41-7.08,3-10.64,4.48-1.09.45-2.26.72-3.38,1.11a22.86,22.86,0,0,0-4.3,1.85,29.08,29.08,0,0,1-6,2.34,45.63,45.63,0,0,1-8.13,2.29C344.23,649.57,340.72,650.29,337.14,649.86Zm46.34,35.51c-1.39-1-3.18-1.44-4.52-2.49-2-1.6-3.87-3.48-5.77-5.27-3.87-3.66-7.71-7.34-11.6-11A17.74,17.74,0,0,0,359.3,665l.13-.47c1.44.3,2.89.55,4.31.89a64.79,64.79,0,0,1,6.8,1.82c2.21.8,4.27,2,6.42,3,.85.39,1.76.61,2.63,1a6,6,0,0,1,1.45.8,37.61,37.61,0,0,1,8.43,9.74,30.56,30.56,0,0,0,5.1,5.9,26.62,26.62,0,0,1,2.19,2.19C392.3,688.39,387.48,688.19,383.48,685.37Zm10.83-12.86a51.64,51.64,0,0,1,6,2c2,.85,3.88,2,5.82,3a26.61,26.61,0,0,1,6,4.2c1.25,1.16,2.63,2.18,4,3.24,2.84,2.27,5.7,4.53,8.54,6.79.62.5,1.27,1,1.83,1.52a22.49,22.49,0,0,1,1.52,1.89c-.83,0-1.12,0-1.4,0-3.85-.45-7.73-.77-11.56-1.41-4.54-.77-9.05-1.78-13.56-2.79a3.89,3.89,0,0,1-1.93-1.34c-1.95-2.39-4.42-4.28-6.07-7-1.88-3.07-4.3-5.8-6.79-9.07a6.44,6.44,0,0,1,1.81.28,69.85,69.85,0,0,1,10.2,8,72.48,72.48,0,0,0,7.29,6,15.57,15.57,0,0,0,4.49,2.07c2.93.9,5.93,1.59,8.9,2.36a7,7,0,0,0,1.07,0,13.13,13.13,0,0,0-1-1c-2.5-1.92-5.63-2.46-8.36-3.84-3-1.53-5.85-3.4-8.77-5.11-1.64-3.26-4.87-4.95-7.34-7.38a23.62,23.62,0,0,0-2.86-2A7.54,7.54,0,0,1,394.31,672.51ZM510.92,687.3l1.92.43-.23.6-1.82-.51Zm-3.28,3.88c-2.9.37-5.65,1-8.76.17-3.42-.94-6.63-2.37-9.94-3.53a12.52,12.52,0,0,1-2.37-1.55c-1.72-1.12-3.48-2.18-5.17-3.34-.74-.51-1.73-.93-1.59-2.34a9.69,9.69,0,0,1,1.33.29c2.19.8,4.37,1.63,6.55,2.45a.49.49,0,0,1,.22.09c2.29,2.52,5.93,2.24,8.59,4.19,1.55,1.13,3.88,1.2,5.86,1.73,1.78.47,3.57.9,5.35,1.35Zm-28-14.9a32.81,32.81,0,0,0,3.17.94,24.1,24.1,0,0,1,8.85,3.16,14.22,14.22,0,0,0,2.73.8c3.89,1.44,7.87,2.67,11.49,4.81a14.3,14.3,0,0,0,3.35.86c-2.11,1.2-3.69.54-5.21.11-2.45-.71-4.89-1.5-7.3-2.37-1.55-.55-3.05-1.27-4.56-2a125.13,125.13,0,0,0-15.1-6.39c-.28-.09-.53-.31-.64-.89Zm53.89-17.83c1,0,2.05-.05,3.06,0,5.86.39,11.69.85,17.35,2.71,4.34,1.42,8.78,2.53,13.22,3.59a38.6,38.6,0,0,0,7,1c3.84.2,7.41,1.49,11.07,2.45.09,0,.13.26.35.72a15.47,15.47,0,0,1-2.7.26,41.87,41.87,0,0,0-6.9.12,23.2,23.2,0,0,1-7.06-.73c-4.31-1-8.57-2.23-12.82-3.45-3.28-.94-6.57-1.85-9.76-3.05a63.82,63.82,0,0,0-11.45-2.66,9.15,9.15,0,0,1-1.46-.53Zm-7.88,2a66.46,66.46,0,0,1,9.44,1.13c5.29,1.06,10.63,2.08,15.64,4.12a84.89,84.89,0,0,0,12.44,3.5,14.91,14.91,0,0,1,2.92,1,11.6,11.6,0,0,0,5.29,1,17.46,17.46,0,0,1,2.58.42,8.63,8.63,0,0,1-4.43,2.29,50,50,0,0,1-11.76,1.33,29.7,29.7,0,0,1-11.73-2.77c-2.63-1.24-5.37-2.26-8-3.46-2.3-1-4.51-2.29-6.82-3.31-3.69-1.63-7.43-3.15-11.2-4.74A12.83,12.83,0,0,1,525.66,660.43Zm85.3-2.79c-.27.34-1.07.27-1.9.45a8.12,8.12,0,0,1,3.91-5.24C613.52,655.08,612,656.3,611,657.64Zm86.25-24.33c1.12,1,2.35,2.11,1.68,3.61s-2.25,1.23-3.74,1.23c-3.67,0-6.71-1.69-9.83-3.18-.7-.34-1.17-1.15-1.77-1.75C686.87,630.67,694.29,630.8,697.21,633.31Zm.85-8.91a2.78,2.78,0,0,1,3.17.84c-2,1.91-9,3.88-12.24,3.4a2.88,2.88,0,0,1,2.08-2C693.39,625.87,695.72,625.1,698.06,624.4Zm-10.26-3.89a15.05,15.05,0,0,1,3.14-1.48,1.08,1.08,0,0,1,1,.36,1.23,1.23,0,0,1,0,1.09,18,18,0,0,1-1.24,1.4c-1.74,2.2-3.21,4.65-5.71,6.15-.78.47-1.55,1-2.46,1.56C682,625,684.73,622.61,687.8,620.51Zm-16,24.67c-.75,1.81-1.63,2.41-2.87,2s-1.48-1.41-1-3.53C669.51,643.74,671.13,643.35,671.83,645.18Zm-4.65-9.1c0-.37,1-.67,1.74-1.11,1.15,3.63,1.07,3.92-1.2,5C666.59,638.84,667.07,637.39,667.18,636.08Zm-11.85,20.26c.71,1,1.33,2.19.22,3.49a20.25,20.25,0,0,1-8.26-9.87C651.42,650.7,653.41,653.5,655.33,656.34Zm-7.27-17.26c1.69,1.83,1.09,3.88.75,5.76-.11.63-1.14,1.36-1.88,1.55-1,.26-1.47-.68-1.78-1.56C644.23,642.29,645.18,640.32,648.06,639.08Zm-18.84,6.74c.22-.62.51-1.58.94-1.69,1.05-.25,1.43.68,1.67,1.55-1.19,1.41-1.19,1.41-2.77,1.73A6.59,6.59,0,0,1,629.22,645.82Zm1.37,9.8c-1.81-.5-2.08-1-2.05-3.7C630.27,652.22,630.88,653.33,630.59,655.62Zm-9.83-9.52a5.39,5.39,0,0,1-5.29.89C616.93,644.86,618.47,644.56,620.76,646.1ZM596.91,648c.34,1.77.3,1.95-1.4,3.72-.48.49-1,1.3-2.19.44Zm-24.42-17.22c1.62-3.26,3.32-6.48,4.94-9.74a53.37,53.37,0,0,1,8.28-12.09c3.79-4.22,8.24-7.58,12.56-11.13a21.2,21.2,0,0,1,2.45-1.43q5-3.18,10-6.4l.58.44c-.94,1.58-1.81,3.21-2.83,4.74a45.64,45.64,0,0,1-9.84,10.92,89.19,89.19,0,0,0-9.5,8.84c-3.85,4.08-7.72,8.15-11.71,12.1-1.84,1.83-3.47,3.88-5.29,5.94C571.61,632,572.19,631.38,572.49,630.76Zm8.18.14c-1.95,1.47-4,2.79-6,4.13a11.87,11.87,0,0,1-1.65.78l-.39-.54,5.13-5.23c1.66-1.68,3.31-3.38,5-5.06s3.6-3.59,5.37-5.41c2.17-2.22,4.26-4.51,6.49-6.67,1.34-1.3,2.94-2.35,4.31-3.63,2.7-2.52,5.32-5.13,8-7.72a10.77,10.77,0,0,0,.95-1.34,7.94,7.94,0,0,1,2.25-2.27,3.9,3.9,0,0,1-.13,1.39A85.27,85.27,0,0,1,601,612.8a73.28,73.28,0,0,1-6.54,6.53c-1.83,1.75-3.69,3.49-5.63,5.11Q584.82,627.77,580.67,630.9ZM669.4,619c-.84,1.75-3.41,2.57-5.72,1.77C665.14,618.67,667.09,618.28,669.4,619Zm-9-4.33.59-.17c.27.41.84.88.76,1.2a4.55,4.55,0,0,1-2.85,3.33C658.47,617.13,660.22,616.22,660.38,614.7Zm3.35,9.11c.29.06.62.68.64,1.06s-.53.78-.76.75a15.39,15.39,0,0,1-5.55-2C660.31,622.66,662,623.47,663.73,623.81Zm-10.13-5.49a5.41,5.41,0,0,1-2.69,3.85A4.71,4.71,0,0,1,653.6,618.32Zm2.33,11.19c-1.41,2.7-3.82,3.25-5.87,1.51-.84-.72-1.6-1.52-2.89-2.75C650.64,627.44,653.25,628.4,655.93,629.51ZM643.26,622l.45.37-3.36,4C640.46,624.23,641.94,623.18,643.26,622Zm-1.18,11.21a10.08,10.08,0,0,1-5.49-.19,1.74,1.74,0,0,1-1.42-1.91C638.27,630,639.62,630.37,642.08,633.22Zm-9.82-1.87c.24,1,.41,1.67.57,2.33l-.28.3-2.77-2.21Zm-2.65,2.89c-1.7.21-2.65-1-3.65-2.06C627.75,631.9,628.44,633.46,629.61,634.24Zm-2.11-7.6c-.79,1-1.88,1.18-3.36,1.69C625.34,626.37,625.34,626.37,627.5,626.64Zm-6,6.87c-1.33.78-2.56.53-4.49-.83C618.71,632.23,620,633.14,621.52,633.51Zm-3.91-7.3a3.26,3.26,0,0,1-4.09,1.92Zm-8.31,8.43c-1.91.58-2.88-1.13-4.3-1.45A3.17,3.17,0,0,1,609.3,634.64ZM607,628.86l-3.49.91C604.77,628.29,604.77,628.29,607,628.86Zm-5.86,6.89c-1.91-.14-3.1-1.23-4.92-2.26C598.58,633.37,600.11,633.73,601.13,635.75Zm66.54-105a8.45,8.45,0,0,1,1,1.89,32.2,32.2,0,0,1,.51,4.68,14.77,14.77,0,0,0,2,6.05c1.5,3.12,1.51,6.32,1.55,9.69C669.84,551.11,666.48,536.38,667.67,530.71Zm8.93,15.88a82.73,82.73,0,0,0-4.74-14.78,16.13,16.13,0,0,1-1.42-9c.37-2.7-.07-5.51-.23-8.27a7.93,7.93,0,0,1,1.36-5.17c1.91-.15,2.4.14,3,1.83.48,1.34,1,2.68,1.39,4.05a8.6,8.6,0,0,0,4.8,5.55c3,1.51,3.92,3.1,3.31,6.51-.5,2.8-1.22,5.57-1.89,8.34a4.72,4.72,0,0,1-.68,1.5,36.63,36.63,0,0,0-4.08,8.54C677.33,545.93,677,546.11,676.6,546.59Zm25.84,7.75c1.76,1.35,1.5,3.54-.36,4.79a12.36,12.36,0,0,1-9.84,1.85c-1.54,0-3.85.07-6.15,0a6.7,6.7,0,0,1-2.2-.84c-1.8-.83-3.58-1.73-5.4-2.56A2.59,2.59,0,0,1,677.1,555c0-1-.25-2,1.09-2.28,1-2.83,3.64-2.32,5.7-2.36a94,94,0,0,1,11.12.57A15,15,0,0,1,702.44,554.34Zm-10.73-17.62a20.44,20.44,0,0,1,7.5-1.93,40,40,0,0,1,7.34-.09c2.82.24,3.65,1.92,3.63,4.72,0,2.5-1.56,3.51-3.29,4.31-2.76,1.3-5.47,2.85-8.61,3.14-2.19.2-4.38.56-6.57.59-3.38,0-6.77-.12-10.16-.2-.31,0-.62-.07-1.24-.14a13.14,13.14,0,0,1,4-6.79C686.52,538.36,689.28,538,691.71,536.72Zm36.18-74.09c2.38,2.17,3.32,4.91,4.13,7.48s1.48,5,2.4,7.88a6.14,6.14,0,0,0,1-5.54c-.47-1.43-1-2.85-1.44-4.28-.2-.65-.32-1.33-.63-2.6a22.61,22.61,0,0,1,3,2c3,3,6.85,4.2,10.81,5.2a7.06,7.06,0,0,1,5.61,7,8.15,8.15,0,0,1-2.76,5.81c-2,2-4.48,2.73-7.25,3.38a13.75,13.75,0,0,1-8.27-.44,8.61,8.61,0,0,1-4.79-4.65c-1.66-3.5-1.75-7.26-1.76-11Zm18.57-8.19c-.09-.84-.32-1.28-1.5-1.28a17.74,17.74,0,0,1-7-1.92c-.63-.28-1-1.11-1.64-1.83a33.13,33.13,0,0,1,4-.81c3.29-.26,6.11-2.05,9.28-2.72s6.29-.78,8.82,1.92c2.12,2.26,2,5,1.77,7.77a14.09,14.09,0,0,1-1.11,3.34c-2,5.31-8.12,5.91-11.59,3.33a3.76,3.76,0,0,0-.61-.36,23.36,23.36,0,0,1-5.29-3.05c-1.38-1.06-2.6-2.26-3.89-3.4-.74-.65-1.36-1.43-2.25-2.38.66.09,1.4,0,1.71.27,1.13,1.12,2.63,1.34,3.94,2s2.65.41,4,.58A1.24,1.24,0,0,0,746.46,454.44ZM748.39,288c-.29,1.62-.6,3.25-1,4.85-.56,2.39-1.39,4.72-1.72,7.13a49.69,49.69,0,0,1-2.48,8.82,56.19,56.19,0,0,1-3.32,6.86c.5-12.17,3.57-22.46,8.36-29.11A6.36,6.36,0,0,1,748.39,288Zm-12,11.83c0-3.55,1.33-6.67,2.95-9.65,2.22-4.09,4.71-8,7.16-12,1.07-1.74,2.33-3.37,3.5-5A30.22,30.22,0,0,1,746.06,284a6.82,6.82,0,0,0-.4.59c-1.41,3.19-2.94,6.32-4.16,9.58-1.11,2.95-1.8,6.06-2.81,9.05-1.16,3.43-1,7-1.3,10.5,0,.46-.15.91-.22,1.34l-.52,0c-.18-2.34-.44-4.68-.48-7C736.13,305.32,736.37,302.55,736.34,299.79Zm-39.21-29.56c3.69,3.58,7.5,7,11,10.82,2.58,2.79,5.64,5,8.32,7.65a43.63,43.63,0,0,1,3.85,4.51c2.1,2.72,4.11,5.5,6.15,8.26a6.44,6.44,0,0,1,.59,1,101.81,101.81,0,0,1,6.17,13.38,28.65,28.65,0,0,1,1,5.34c.36,2.33.62,4.68.93,7l-.55.08c-3.68-7.57-9-14-14.3-20.43-1.73-2.1-2.84-4.82-5.43-6.18-2.71-3.62-5.5-7.18-8.08-10.88-2.76-4-5.68-7.84-7.56-12.33-1.13-2.72-2.11-5.5-3.33-8.68C696.63,270.05,697,270.06,697.13,270.23Zm-2,5c-.4-1.21-.79-2.42-1.25-3.81C695.28,272.92,695.3,273,695.12,275.25Zm2,5.08-1.52-3.23.48-.24c.54,1.05,1.08,2.1,1.61,3.15Zm.22,1.14c1.06.19,1.68.72,1.55,1.76Zm37.21,59.47c-.87-2.68-1.48-5.47-2.88-7.95-1.18-2.08-2.46-4.11-3.75-6.13-.42-.66-1-1.21-1.49-1.83-2.41-3.13-4.89-6.22-7.2-9.42-2.73-3.77-5.29-7.65-8-11.45-1.18-1.66-2.61-3.16-3.67-4.89-1.71-2.79-3.43-5.58-5.06-8.42a18.15,18.15,0,0,0-1.76-3.26c-1.15-1.26-1.38-2.79-1.83-4.28,1.08-.08,1.16,1,1.44,1.55a41.15,41.15,0,0,0,4.29,6.77c1.86,2.45,3.44,5.1,5.15,7.66.22.32.51.6.76.9q5,6,10,12c1.21,1.45,2.52,2.81,3.68,4.3.85,1.1,1.51,2.36,2.31,3.51.92,1.35,1.92,2.66,2.85,4a39.84,39.84,0,0,1,6.24,12.22c.86,3.23,1.6,6.66.59,10.57C735.57,344.58,735.1,342.74,734.52,340.94ZM705.93,398.5a20.55,20.55,0,0,1,4.08,5.83c1.31,2.63,2.6,5.26,3.82,7.92a18.8,18.8,0,0,1,.91,2.9c.09.3,0,.69.1.94,1.26,2.11.41,4.13-.2,6.17-2.35.42-2.24.35-3.33-1.44a36.31,36.31,0,0,0-3.38-4.46,4.41,4.41,0,0,1-1.24-3.66,30.16,30.16,0,0,0-1-12.7A2.24,2.24,0,0,1,705.93,398.5ZM698,389.84c1.05,1,2.08,1.93,3.11,2.9a6.55,6.55,0,0,1,1.92,4c.34,2.12.89,4.2,1.34,6.29a26.88,26.88,0,0,1,.7,8.73c-.6-.44-.86-.54-1-.73-3.14-5.77-5.21-12-7.48-18.12a13.26,13.26,0,0,1-.65-4.77C696.69,388.68,697.38,389.24,698,389.84Zm-2.23,19.38c-.22-1.05-.91-2-1.19-3q-1.49-5.61-2.83-11.26c-.81-3.37-1.52-6.77-2.26-10.16a5.72,5.72,0,0,1-.06-.94c3,.26,2.91.29,3.44,3,.8,4.08,1.57,8.19,2.68,12.2a49.55,49.55,0,0,0,3,6.92,49.28,49.28,0,0,1,2.13,4.47c.9,2.64,2.77,4.62,4.28,6.84,1.1,1.61,2.11,3.27,3.41,5.3-2.55-.4-4.47-.76-5.72-2.73-.43-.67-1.36-1-1.89-1.62C698.56,415.54,696.54,412.75,695.81,409.22Zm29.05,49.89a13.19,13.19,0,0,0-2.62,6.17,16.11,16.11,0,0,1-6.54,10.58,6.41,6.41,0,0,1-5.14.66,2.18,2.18,0,0,1-1.75-1.74,22,22,0,0,1-1-3.42,9,9,0,0,0-3.73-6.45c-2.4.12-4.75.29-7.1.34-1.95,0-2.79-.89-2.42-2.81a8.88,8.88,0,0,1,5.67-7.08c3-1.13,6.18-2,9.31-2.88a10.13,10.13,0,0,1,6.71.38c1.8.73,3.67,1.29,5.51,1.92,1.21.43,1.38.83.66,1.83a7.69,7.69,0,0,1-1.52,1.81c-3.07,2.2-5.25,5.48-8.72,7.21-.51.25-.8.94-1.2,1.44,2.05,1.43,2.09,1.65,3.7.4s3-2.54,4.53-3.73c1.73-1.34,2.92-3.16,4.42-4.69a7.32,7.32,0,0,1,1.23-.79C724.84,458.69,725,459,724.86,459.11ZM719.51,443a16.14,16.14,0,0,1-3.64-2,3.57,3.57,0,0,0-3.35-.44c-.9.2-1.07,1.14-.43,1.87a3.49,3.49,0,0,0,1.27,1c2.77,1.1,5.13,3.07,8.22,3.49,1.64.23,2.89,1.88,3.29,3.58a1.32,1.32,0,0,1-1.9.36,11.44,11.44,0,0,0-4.93-1.23,16,16,0,0,1-4.06-1c-2-.61-4-1.26-6.19-.66a2.05,2.05,0,0,1-.95.08c-3.81-.8-7.69-.37-11.53-.62a39.47,39.47,0,0,1-5.8-.89c-2.54-.53-3.7-2.25-3.83-4.94-.21-4.49,1.68-7.95,4.94-10.82.18-.16.32-.36.48-.53a10.26,10.26,0,0,1,5.73-3.58c2-.36,3.91-1.06,5.9-1.33a9.38,9.38,0,0,1,3.22.49,30.08,30.08,0,0,1,4.34,1.14,56.37,56.37,0,0,1,5.81,2.66,23.21,23.21,0,0,1,2.93,2,15.72,15.72,0,0,1,4.31,5.18c1,1.83,1.44,3.82,2.25,5.69a12.57,12.57,0,0,1,.47,3C723.66,444.59,721.55,443.86,719.51,443Zm11,5.51-.44,0,.15-2.11h.4C730.59,447.09,730.55,447.79,730.52,448.5Zm13.4-35.19a8.16,8.16,0,0,1,3.46,2.41,34.6,34.6,0,0,1,3.54,6.09c1.4,2.89.69,5.52.31,8.23-.58,4.15-3.28,6.59-7.19,7.62a26.12,26.12,0,0,0-11,6.43,11,11,0,0,1-1.32.91l-.39-.38c1.31-2.29,2.73-4.41,5.22-5.76a49.44,49.44,0,0,0,5.6-3.92,4.2,4.2,0,0,0,.78-1.16,1.58,1.58,0,0,0-2.48-.57c-4.29,2.53-8.56,5.1-11,10.11a8.09,8.09,0,0,1-.81-1.73c-.88-4.72-1.69-9.46-2.59-14.17a22.65,22.65,0,0,0-1.08-3.36A29.15,29.15,0,0,1,723,411.73c.14-1.64-.06-3.29.66-4.9.46-1,1.78-1.7,1.46-3.16,0-.15.85-.5,1.52-.88a24.66,24.66,0,0,1,1.87,3.39A5.26,5.26,0,0,0,731,409a22.56,22.56,0,0,0,7.48,3A28.67,28.67,0,0,1,743.92,413.31Zm17-57c-.39.95-.82,1.88-1.14,2.85-1.66,5-1.45,10.12-1.36,15.24a28,28,0,0,1-1,8.69,25.65,25.65,0,0,0-1.25,5.95c-.12,2.43-1.78,4-2.6,6.06-1.26,3.11-4.26,4.64-6.65,6.69a31.45,31.45,0,0,1-5.31,3.46,6,6,0,0,1-2.82.92c-1.34,0-2.64,1-4.24,1.62,1.09-2.74,1.48-5.47,3.06-7.9,1.45-2.23,2.26-4.88,3.6-7.2A51.37,51.37,0,0,1,749,382.22a49.56,49.56,0,0,0,3.87-4.78,18.66,18.66,0,0,0,1.24-2.35,8,8,0,0,0-4.3,2.57,112.74,112.74,0,0,0-9.94,12.49c-.47.73-.81,1.54-1.25,2.29a4.82,4.82,0,0,1-1.28,1.47,16,16,0,0,1,1.92-7.18,42.35,42.35,0,0,0,2-4.85c2.56-5.75,6.27-10.81,9.79-16,2.48-3.64,5.9-6.38,8.68-9.73a5.57,5.57,0,0,0,.52-.93C760.92,355.29,761.24,355.57,761,356.3Zm-.68-1.13a14.5,14.5,0,0,0-8.18,5.32,16.68,16.68,0,0,1-1.53,1.5c-.34.34-.87.63-1,1-.63,2.33-2.72,3.6-3.91,5.51-1.7,2.76-3.38,5.55-4.92,8.4-1,1.9-2.56,3.63-2.54,6-2.09,2.4-1.91,5.77-3.52,8.45a11.59,11.59,0,0,1-.28-5.17c.71-4.26,2.43-8.16,4-12.13a17.77,17.77,0,0,0,1-5.95c-.77,1.33-1.56,2.65-2.3,4-2.71,4.88-5,9.94-5.36,15.58-.21,2.9,0,5.84.09,8.76s.21,5.84.3,8.77c0,.19-.17.4-.32.73-1.29-.44-1.39-1.61-1.84-2.54a12.72,12.72,0,0,0-1.17-2,2.75,2.75,0,0,0-3.37-1.07c-.36.11-.75.15-1.5.31a56.58,56.58,0,0,0,.37-6,40.31,40.31,0,0,1,.5-6.12c.34-3,1.72-5.57,2.55-8.36,1-3.37,3.17-6.11,5.06-9a37.77,37.77,0,0,1,7.31-8.34,46.75,46.75,0,0,1,8.41-5.22c2.15-1.13,4.19-2.44,6.34-3.51,3.89-1.94,6.45-5.51,10.45-7.81C763.79,349.64,762.83,352.8,760.27,355.17Zm-231,226.49c1.18.36,2,1.65,3.56,1.27-1.11-1.82-2.2-3.59-3.4-5.54,1.81.24,1.81.24,5.86,5.18,2-1.42,2.73-4,5.15-4.65.83,1.23.83,1.23-1.11,4.34.85-.8,1.74-1.55,2.52-2.4s1.91-1.29,2.39-.58.36,1.52-.54,2.21a35.11,35.11,0,0,0-3.45,3.24,6,6,0,0,0-.67,1.28c.79.32,1.5.58,2.19.89,2.76,1.25,3,2.69,1.48,4.26-.63.67-.41,1.3-.29,2s.26,1.48.39,2.26c-2.26.62-2.43-1.37-3.33-2.25-.66-.64-.95-1.63-1.56-2.33a14.57,14.57,0,0,0-2-1.58l-5,6.85c-1.38-1.17-.4-2.05,0-3a35.52,35.52,0,0,0,1.92-4.48c-1.89,1-2.72,2.76-3.66,4.62-1.7-2.28.82-3.39,1.37-5.18h-3.33c-.53-1.72.93-1.68,1.61-1.92.83-.29,1.84-.07,2.88-.3-1.82-2.27-5.24-2.68-6.73-5.61C527.45,579.83,528.13,581.31,529.29,581.66ZM538,546.74c.3-.24.57-.53,1-.88-1.2-1.69-2.37-3.31-3.53-4.94l.35-.39,2.95,1.63.49-3.28h.45c.35,1.73.69,3.46,1,5.3,2.25-1.09,1.75-3.65,3.43-4.86.93.78.1,1.62.09,2.86,1-.89,1.73-1.58,2.51-2.14a5.43,5.43,0,0,1,1.39-.48c.06.59.39,1.42.12,1.71a25.4,25.4,0,0,1-3,2.63c-.9.73-1.82,1.43-2.69,2.11,1.15,2.24,1.57,2.5,3.57,2.19,1.09-.18,2.15-.49,3.24-.69a1.78,1.78,0,0,1,1.12,0,8.45,8.45,0,0,1,1.31,1.17c-.48.43-.9,1.08-1.46,1.25a25.43,25.43,0,0,1-3.26.52,3.25,3.25,0,0,0-.78.46,12.46,12.46,0,0,1,1.27,1,1.27,1.27,0,0,1,0,1.91c-.6.65-1.15.32-1.64-.17s-1.17-1.3-1.8-1.89a6,6,0,0,0-1.23-.64c-.48,2.4.46,4.64-.86,6.73-2.31-1.67-.26-4.37-1.77-6.31l-2.37.55c-.09,1.86,1.42,3.65-.19,5.39-2.45-1.12-.95-3.52-1.84-5.13-1.53-1-3,1.52-4.58.2-1.69.55-3.23,0-4.83-.88,1.34-.23,2.68-.46,4-.67.31-.05.64,0,.95,0,3-.3,3.94-1.29,4.25-4.51l1.37.82C537.3,547.18,537.64,547,538,546.74Zm-50.06,3.66-3-1.53c1.19-1.87,2.26-.37,3.46-.14.18-1.67-1.27-2.07-2.3-2.88l1.85-1.46c1.07,1.25,2.35,2,4,.5l.85,1.58,1.69.2c.49,1.29.91,2.43,1.31,3.5-1.07,1-2.67-.94-3.28,1.11.82.48,1.68,1,2.52,1.49a2.92,2.92,0,0,1,1.09.84,1.72,1.72,0,0,1,0,1.28c-.08.18-.71.25-1,.17a10.74,10.74,0,0,1-1.64-.75c-.31,1.47,1.54,2.75.07,4.13-2.09.24-1.11-2.09-2.48-2.94a5.18,5.18,0,0,1-.16,1.32,9.69,9.69,0,0,1-.91,1.25c-.45-.38-1.09-.69-1.28-1.17a3.6,3.6,0,0,1,0-1.84c.15-.83.42-1.64.71-2.7-2.08.08-3.57,1.63-5.64,1.1C484.57,551.58,486.68,551.78,487.89,550.4Zm-15.07,20.77c-.37-1-.73-1.88-1.08-2.79l.4-.13c.87,1,1.74,1.9,2.79,3,.83-2-1.08-3.07-.54-4.74,1.5.69,1.65,2.48,2.71,3.52,1.71.37,3-1.73,5.15-.91-.34,1-.63,1.78-.93,2.64,0,0,.14.17.24.14.82-.21,1.71-.31,1.92.73s-.64,1.34-1.48,1.49c-.68.13-1.38.22-2.42.38l1.57,2.24c-.26.46-.54,1-.89,1.63l-1.87-1.25-1.53.62-1.59-1.41-2,1.76c-.59-1.45,1.17-1.88,1-3.26l-3.32-1.1C470.51,572.23,471.66,571.73,472.82,571.17Zm61.38,56.61c-1.12,2-2.69,3.39-2.46,5.79-1.14.32-1.41-.4-1.24-1.28.24-1.23.66-2.43,1-3.64l-.37-.34-2.71,1.93c-.51-1.22.27-1.9,1-2.58s1.53-1.34,2.37-2.08c-.83-1.13-1.55-2.11-2.42-3.31,2.2-.56,2.46,2,4,1.84,1.69-1.21,1.75-4.32,4.79-4.26.85,3.11-2.19,4.06-3,6.46.84.85,1.9,1.87,2.9,3,1.22,1.33,1.15,2.17-.32,3.32Zm-27-62.22c.24-1.21.68-2.25-.7-3.12a12.47,12.47,0,0,1-2.36-2.29c-.22-.25-.19-.71-.34-1.33,1.89.1,2.77,1.73,4.26,2.15l1.36-2.05.46.11a4.67,4.67,0,0,1,0,1.4,3.3,3.3,0,0,0,.75,3.7,32.35,32.35,0,0,1,2.1,2.89c.42.57.73,1.29,0,1.62a2.44,2.44,0,0,1-1.84-.36c-.34-.18-.38-.85-.64-1.24s-.74-.91-1.16-1.42c-1.47,2,1.45,2.6.86,4.48a8.24,8.24,0,0,0-1.55.15,14.08,14.08,0,0,0-1.81.79,17.62,17.62,0,0,0-.88-3.74,16,16,0,0,0-2.31-2.93C505.35,563.14,505.87,565.17,507.16,565.56Z" transform="translate(-92.36 -18.9)"/></svg>